<?xml version="1.0" encoding="UTF-8"?> <svg xmlns="http://www.w3.org/2000/svg" viewBox="0 0 652 237"><defs><style>.cls-1{fill:#fff;}</style></defs><title>blackBg</title><g id="Graphics"><path class="cls-1" d="M282.47,118.94a18.12,18.12,0,0,1-12.87-5.33L230.51,74.52a18.23,18.23,0,0,1,0-25.74L269.6,9.69a18.2,18.2,0,0,1,25.74,0L308.67,23a3.09,3.09,0,0,1-4.37,4.37L291,14.06a12.31,12.31,0,0,0-17,0L234.88,53.15a12,12,0,0,0,0,17L274,109.24a12.31,12.31,0,0,0,17,0L319.4,80.81a3.09,3.09,0,0,1,4.37,4.37l-28.43,28.43A18.06,18.06,0,0,1,282.47,118.94Z"></path><path class="cls-1" d="M290,44.77a3.09,3.09,0,0,1-2.19-5.28l29.81-29.8a18.2,18.2,0,0,1,25.74,0L356.68,23a3.09,3.09,0,0,1-4.37,4.37L339,14.06a12.31,12.31,0,0,0-17,0L292.18,43.87A3.07,3.07,0,0,1,290,44.77Z"></path><path class="cls-1" d="M330.49,118.94a18.1,18.1,0,0,1-12.87-5.33L304.3,100.29a3.09,3.09,0,1,1,4.37-4.38L322,109.24a12.31,12.31,0,0,0,17,0l28.43-28.43a3.09,3.09,0,0,1,4.37,4.37l-28.43,28.43A18.12,18.12,0,0,1,330.49,118.94Z"></path><path class="cls-1" d="M378.51,118.94a18.13,18.13,0,0,1-12.88-5.33l-13.32-13.32a3.09,3.09,0,0,1,4.37-4.37L370,109.24a12.32,12.32,0,0,0,17,0l39.08-39.09a12,12,0,0,0,0-17L387,14.06a12.32,12.32,0,0,0-17,0L340.2,43.87a3.09,3.09,0,0,1-4.37-4.38l29.8-29.8a18.22,18.22,0,0,1,25.75,0l39.08,39.09a18.22,18.22,0,0,1,0,25.74l-39.08,39.09A18.12,18.12,0,0,1,378.51,118.94Z"></path><path class="cls-1" d="M462.73,225.32c-4.86,1-8.42.85-10.31-.36-1.54-1-2.32-3-2.32-6V179.12h13.59l.3,0a3.76,3.76,0,0,0,3.76-3.77h0a1,1,0,0,0,0-.18,3.76,3.76,0,0,0-3.74-3.58l-.15,0-.15,0H450.1V156.75s0-.06,0-.09,0-.08,0-.12a4.06,4.06,0,0,0-8.12,0s0,.08,0,.12,0,.06,0,.09v62.18c0,5.16,1.82,8.95,5.43,11.28a17.55,17.55,0,0,0,9.67,2.43,38.21,38.21,0,0,0,7.31-.78h0a3.36,3.36,0,0,0-.61-6.67c-.12,0-.21,0-.34,0S463,225.27,462.73,225.32Z"></path><path class="cls-1" d="M396.73,225.32c-4.85,1-8.42.85-10.3-.36-1.54-1-2.33-3-2.33-6V179.12h13.6a2.85,2.85,0,0,0,.29,0,3.77,3.77,0,0,0,3.77-3.77h0c0-.07,0-.12,0-.18a3.77,3.77,0,0,0-3.75-3.58l-.14,0-.15,0H384.1V156.75s0-.06,0-.09,0-.08,0-.12a4.06,4.06,0,0,0-8.12,0s0,.08,0,.12,0,.06,0,.09v62.18c0,5.16,1.83,8.95,5.44,11.28a17.52,17.52,0,0,0,9.66,2.43,38.39,38.39,0,0,0,7.32-.78h0a3.36,3.36,0,0,0-.62-6.67l-.34,0S397,225.27,396.73,225.32Z"></path><path class="cls-1" d="M223.55,169.59c-11.49,0-23.85,8.57-23.85,27.38v31.61h0a4.06,4.06,0,1,0,8.12,0h0V197c0-12.19,6.47-20.7,15.73-20.7,8.87,0,14.82,8,14.82,20v32.41h0a4.05,4.05,0,0,0,8.1,0h0V196.25C246.49,180.3,237.27,169.59,223.55,169.59Z"></path><path class="cls-1" d="M503.9,232.64c11.49,0,23.85-8.57,23.85-27.39v-31.6h0a4.06,4.06,0,1,0-8.12,0h0v31.6c0,12.19-6.47,20.71-15.73,20.71-8.87,0-14.83-8-14.83-20v-32.4h0a4.05,4.05,0,0,0-8.1,0h0V206C481,221.92,490.17,232.64,503.9,232.64Z"></path><path class="cls-1" d="M97,232.64c-15.44,0-26.65-12.89-26.65-30.64v-.62c0-17.76,11.21-30.65,26.65-30.65s26.64,12.89,26.64,30.65V202C123.62,219.75,112.42,232.64,97,232.64Zm0-55.23c-10.74,0-18.53,10.08-18.53,24V202c0,13.88,7.79,24,18.53,24,10.56,0,18.52-10.3,18.52-24v-.62C115.5,187.49,107.71,177.41,97,177.41Z"></path><path class="cls-1" d="M284.16,170.42c-12.06,0-25,9.73-25,31.11v.41c0,9.08,2.67,16.79,7.73,22.32a26,26,0,0,0,19.48,8.38,32.34,32.34,0,0,0,19.05-6.26c.11-.07.21-.16.32-.24h0a3.59,3.59,0,0,0-4.29-5.75h0l-.28.19a3.11,3.11,0,0,0-.38.25A23.43,23.43,0,0,1,286.33,226c-10.71,0-18.13-8.49-19-21.4h36.87c2.24,0,4.06-1.49,4.06-3.34v-.52C308.25,182.59,298.57,170.42,284.16,170.42Zm-16.75,27.46c1-10.84,6.76-20.78,16.75-20.78,8.9,0,15.08,8.23,15.88,20.78Z"></path><path class="cls-1" d="M630.14,170.42c-12.06,0-25,9.73-25,31.11v.41c0,9.08,2.68,16.79,7.74,22.32a26,26,0,0,0,19.48,8.38,32.34,32.34,0,0,0,19.05-6.26c.11-.07.21-.16.32-.24h0a3.59,3.59,0,0,0-4.28-5.75h0l-.29.19a3,3,0,0,0-.37.25A23.47,23.47,0,0,1,632.31,226c-10.71,0-18.13-8.49-19-21.4h36.87c2.24,0,4.06-1.49,4.06-3.34v-.52C654.23,182.59,644.55,170.42,630.14,170.42Zm-16.75,27.46c1-10.84,6.75-20.78,16.75-20.78,8.9,0,15.08,8.23,15.88,20.78Z"></path><path class="cls-1" d="M59.87,226.42A3.59,3.59,0,0,0,57.63,220a3.5,3.5,0,0,0-2.07.66h0l0,0-.16.1-.21.15a23.55,23.55,0,0,1-15,5c-15.4,0-25.35-13.24-25.35-33.73v-.95c0-19.92,10.58-33.83,25.73-33.83A22.81,22.81,0,0,1,54.9,162l.54.4h0a3.59,3.59,0,1,0,4.24-5.79h0l0,0h0a31.73,31.73,0,0,0-19.05-5.79c-19.93,0-33.85,16.66-33.85,40.51v.95c0,24.17,13.45,40.41,33.47,40.41a32.84,32.84,0,0,0,19.4-6Z"></path><path class="cls-1" d="M161,169.59c-11.49,0-23.85,8.57-23.85,27.38v31.61h0a4.06,4.06,0,0,0,8.12,0h0V197c0-12.19,6.47-20.7,15.73-20.7,8.87,0,14.83,8,14.83,20v32.41h0a4.05,4.05,0,0,0,8.1,0h0V196.25C183.92,180.3,174.7,169.59,161,169.59Z"></path><path class="cls-1" d="M364.5,224a3.64,3.64,0,0,0-3.64-3.65,3.59,3.59,0,0,0-2.2.76h0l-1.06.86h0l-.12.08c-3.15,2.57-5.7,4-10.2,4-12,0-20.06-9.59-20.06-23.85v-.73c0-14.1,8.25-23.95,20.06-23.95,4.81,0,7.25,1.55,10.16,3.74l1.05.84h0a3.59,3.59,0,0,0,2.2.76,3.63,3.63,0,0,0,2.21-6.51h0l-.19-.14h0a23.73,23.73,0,0,0-15.45-5.35,27.33,27.33,0,0,0-20.12,8.5c-5.27,5.59-8.06,13.24-8.06,22.13v.73c0,18,11.59,30.53,28.18,30.53a23.28,23.28,0,0,0,15.92-5.89,1.58,1.58,0,0,0,.41-.44A3.61,3.61,0,0,0,364.5,224Z"></path><path class="cls-1" d="M420.39,148.62a4.06,4.06,0,0,0-4.06,4.06v5.42a4.06,4.06,0,1,0,8.12,0v-5.42A4.06,4.06,0,0,0,420.39,148.62Z"></path><path class="cls-1" d="M420.39,169.6a4.05,4.05,0,0,0-4.06,4.06v54.92a4.06,4.06,0,0,0,8.12,0V173.66A4.06,4.06,0,0,0,420.39,169.6Z"></path><path class="cls-1" d="M591.32,151a4.05,4.05,0,0,0-8,.13,3.31,3.31,0,0,0-.06.55v27.14c-4.35-4.83-10.08-8.24-17.08-8.24a26.08,26.08,0,0,0-2.82.15,24.46,24.46,0,0,0-17,9.61c-4.13,5.34-6.55,12.56-6.55,20.84v.93c0,8.14,2.36,15.25,6.39,20.56a24.59,24.59,0,0,0,18.56,9.9c.47,0,.93,0,1.4,0,12.34,0,25.13-8.56,25.2-22.95v-58A2.54,2.54,0,0,0,591.32,151ZM566.21,226c-.49,0-1,0-1.44-.07C555.1,225,548,215.08,548,202.14v-.93c0-12.65,6.74-22.41,16-23.76a14.88,14.88,0,0,1,2.22-.17h.11c.25,0,.51,0,.76,0l.41.05.44.06.49.1.34.07c.18,0,.36.1.54.15l.28.08.58.21.21.08.63.28.15.07c.22.11.45.22.67.35l.08,0a21,21,0,0,1,6.15,5.54l.2.27c.12.16.25.31.37.48l.31.45c2.83,4.07,4.34,9.45,4.36,15.67v8.47c0,10.16-8.72,16.23-17.08,16.23Z"></path></g></svg> 