<svg width="177" height="14" viewBox="0 0 177 14" fill="none" xmlns="http://www.w3.org/2000/svg"><g><path d="M9.85881 2.9805L7.52021 13.0227H4.83769L2.52202 3.00343V13.0227H0V0.18335H4.70013L6.60311 8.0704L8.50609 0.18335H12.8394V13.0227H9.85881V2.9805Z" fill="#000"></path><path d="M18.1127 0.18335H21.6435L25.4037 13.0227H22.1938L21.4601 10.5007H17.5625L16.7829 13.0227H14.1692L18.1127 0.18335ZM20.9099 8.20796L19.5801 3.62247L18.1815 8.20796H20.9099Z" fill="#000"></path><path d="M26.5959 0.18335H31.5483C33.1532 0.18335 34.3684 0.550189 35.2167 1.28387C36.0421 2.01755 36.4548 2.9805 36.4548 4.21858V4.03516C36.4548 4.74591 36.2713 5.41081 35.9274 6.05278C35.5606 6.67182 35.0562 7.17623 34.3913 7.56599L36.707 13.0227H33.4513L31.4107 8.20796H29.8058V13.0227H26.5959V0.18335ZM29.8058 2.4761V6.14449H31.4107C32.0298 6.14449 32.4883 5.96107 32.7864 5.61716C33.0844 5.27325 33.2449 4.86055 33.2449 4.37908V4.1498C33.2449 3.02636 32.6259 2.4761 31.4107 2.4761H29.8058Z" fill="#000"></path><path d="M38.2888 0.18335H42.966C43.8602 0.18335 44.6856 0.320914 45.4193 0.573116C46.1759 0.825319 46.8178 1.21509 47.3452 1.71949C47.8954 2.22389 48.3081 2.88879 48.6062 3.66832C48.9042 4.44786 49.0647 5.38788 49.0647 6.44255V6.71768C49.0647 7.79527 48.9042 8.73529 48.6062 9.51483C48.3081 10.2944 47.8954 10.9593 47.3452 11.4637C46.7949 11.991 46.1529 12.3578 45.4193 12.61C44.6627 12.8622 43.8602 12.9769 42.966 12.9769H38.2888V0.18335ZM41.4987 2.4761V10.2714H42.6909C43.7685 10.2714 44.5709 10.1568 45.0983 9.56068C45.6027 8.96457 45.8549 8.02454 45.8549 6.71768V6.19034C45.8549 4.83762 45.6027 3.8976 45.0983 3.32441C44.5939 2.77415 43.7914 2.4761 42.6909 2.4761H41.4987V2.4761Z" fill="#000"></path><path d="M50.2112 0.18335H53.421V13.0227H50.2112V0.18335Z" fill="#000"></path><path d="M113.491 0.18335H118.168C119.062 0.18335 119.888 0.320914 120.621 0.573116C121.378 0.825319 122.02 1.21509 122.547 1.71949C123.098 2.22389 123.51 2.88879 123.808 3.66832C124.106 4.44786 124.267 5.38788 124.267 6.44255V6.71768C124.267 7.79527 124.106 8.73529 123.808 9.51483C123.51 10.2944 123.098 10.9593 122.547 11.4637C121.997 11.991 121.355 12.3578 120.621 12.61C119.865 12.8622 119.062 12.9769 118.168 12.9769H113.491V0.18335ZM116.701 2.70537V10.5007H117.893C118.971 10.5007 119.773 10.3861 120.3 9.78996C120.805 9.19384 121.057 8.25382 121.057 6.94695V6.41962C121.057 5.0669 120.805 4.12687 120.3 3.55369C119.796 3.00343 118.994 2.70537 117.893 2.70537H116.701V2.70537Z" fill="#000"></path><path d="M125.643 0.18335H128.852V13.0227H125.643V0.18335Z" fill="#000"></path><path d="M72.6802 0.18335H77.6325C79.2374 0.18335 80.4526 0.550189 81.3009 1.28387C82.1263 2.01755 82.539 2.9805 82.539 4.21858V4.03516C82.539 4.74591 82.3556 5.41081 82.0117 6.05278C81.6448 6.67182 81.1404 7.17623 80.4755 7.56599L82.7912 13.0227H79.5355L77.4949 8.20796H75.89V13.0227H72.6802V0.18335V0.18335ZM75.89 2.4761V6.14449H77.4949C78.114 6.14449 78.5725 5.96107 78.8706 5.61716C79.1686 5.27325 79.3291 4.86055 79.3291 4.37908V4.1498C79.3291 3.02636 78.7101 2.4761 77.4949 2.4761H75.89Z" fill="#000"></path><path d="M87.3078 0.18335H90.8386L94.5987 13.0227H91.3888L90.6552 10.5007H86.7346L85.955 13.0227H83.3413L87.3078 0.18335ZM90.082 8.20796L88.7522 3.62247L87.3536 8.20796H90.082Z" fill="#000"></path><path d="M100.56 5.02116C101.225 5.20458 101.844 5.41092 102.371 5.61727C102.898 5.84655 103.334 6.09875 103.701 6.39681C104.068 6.69486 104.343 7.08463 104.526 7.49732C104.71 7.93295 104.801 8.46028 104.801 9.07932C104.801 9.62958 104.71 10.1569 104.503 10.6384C104.297 11.1199 104.022 11.5326 103.632 11.8994C103.242 12.2433 102.761 12.5414 102.165 12.7248C101.592 12.9311 100.904 13.0228 100.147 13.0228C99.3905 13.0228 98.7256 12.9311 98.1066 12.7477C97.4875 12.5643 96.9602 12.3121 96.5246 11.9682C96.089 11.6243 95.7221 11.2345 95.447 10.753C95.1719 10.2715 95.0114 9.74421 94.9197 9.17103L97.9232 8.8959C98.0378 9.51494 98.29 9.99642 98.6568 10.2945C99.0237 10.6155 99.5281 10.776 100.216 10.776C100.697 10.776 101.11 10.6613 101.408 10.455C101.706 10.2486 101.867 9.95056 101.867 9.56079C101.867 9.35445 101.821 9.1481 101.729 8.98761C101.637 8.82712 101.477 8.66662 101.271 8.52906C101.064 8.39149 100.812 8.27686 100.491 8.13929C100.17 8.02465 99.7803 7.88709 99.3217 7.74953C98.6568 7.56611 98.0607 7.35976 97.5793 7.13048C97.0978 6.90121 96.6851 6.64901 96.3641 6.35095C96.0431 6.05289 95.7909 5.68605 95.6304 5.27336C95.4699 4.86067 95.4012 4.37919 95.4012 3.806C95.4012 3.18696 95.5158 2.65963 95.7451 2.17815C95.9743 1.7196 96.2953 1.32984 96.6851 1.00885C97.0749 0.687867 97.5334 0.458593 98.0607 0.2981C98.5881 0.137608 99.1383 0.0458984 99.7115 0.0458984C100.285 0.0458984 100.812 0.0917534 101.339 0.206391C101.844 0.321028 102.325 0.504448 102.738 0.75665C103.151 1.00885 103.517 1.37569 103.816 1.81131C104.114 2.24693 104.32 2.79719 104.457 3.46209L101.569 3.82893C101.5 3.53087 101.385 3.3016 101.248 3.09525C101.11 2.91183 100.95 2.75134 100.789 2.6367C100.606 2.52206 100.422 2.45328 100.239 2.40743C100.055 2.36157 99.872 2.33864 99.6657 2.33864C99.23 2.33864 98.8861 2.45328 98.6339 2.65963C98.3817 2.86598 98.2442 3.14111 98.2442 3.48502C98.2442 3.82893 98.4276 4.12699 98.7715 4.35626C99.1612 4.58554 99.7574 4.81481 100.56 5.02116Z" fill="#000"></path><path d="M136.418 8.48317V6.14457H141.462V13.0228H138.94V11.6242C138.596 12.1057 138.184 12.4726 137.633 12.7706C137.106 13.0687 136.418 13.2062 135.639 13.2062C134.836 13.2062 134.103 13.0457 133.438 12.7477C132.773 12.4496 132.2 12.014 131.741 11.4408C131.26 10.8906 130.893 10.2257 130.641 9.44613C130.388 8.66659 130.251 7.81828 130.251 6.90118V6.78654C130.251 5.82359 130.411 4.90649 130.709 4.10403C131.007 3.27864 131.42 2.59081 131.97 1.9947C132.521 1.39858 133.163 0.962962 133.896 0.61905C134.63 0.275138 135.478 0.137573 136.372 0.137573C137.863 0.137573 139.055 0.481485 139.926 1.14638C140.797 1.81128 141.348 2.79716 141.577 4.12695L138.505 4.51672C138.344 3.8289 138.092 3.34742 137.702 3.02643C137.335 2.72838 136.877 2.56788 136.349 2.56788C136.006 2.56788 135.662 2.63667 135.341 2.79716C135.02 2.95765 134.745 3.18693 134.492 3.50791C134.24 3.8289 134.057 4.24159 133.919 4.74599C133.782 5.2504 133.713 5.84651 133.713 6.58019V7.01581C133.713 8.43732 133.942 9.46905 134.378 10.111C134.836 10.753 135.478 11.074 136.304 11.074C136.991 11.074 137.542 10.8676 137.954 10.4549C138.367 10.0422 138.573 9.51491 138.573 8.85001L136.418 8.48317Z" fill="#000"></path><path d="M66.031 8.46023V6.14456H71.0751V13.0228H68.553V11.6242C68.2091 12.1057 67.7964 12.4725 67.2462 12.7706C66.7188 13.0686 66.031 13.2062 65.2515 13.2062C64.449 13.2062 63.7153 13.0457 63.0504 12.7477C62.3855 12.4267 61.8124 11.9911 61.3538 11.4408C60.8723 10.8905 60.5055 10.2027 60.2533 9.44611C60.0011 8.66658 59.8635 7.81826 59.8635 6.87824V6.7636C59.8635 5.77772 60.024 4.86062 60.3221 4.03523C60.6201 3.20984 61.0328 2.49909 61.5831 1.90298C62.1333 1.30687 62.7753 0.848316 63.509 0.527331C64.2427 0.206347 65.0451 0 65.9622 0C67.4525 0 68.6447 0.343912 69.516 1.00881C70.3872 1.6737 70.9375 2.68251 71.1668 4.03523L68.0945 4.425C67.934 3.73718 67.6818 3.23277 67.292 2.93471C66.9252 2.63666 66.4666 2.47617 65.9393 2.47617C65.5954 2.47617 65.2515 2.54495 64.9305 2.70544C64.6095 2.843 64.3344 3.09521 64.0822 3.41619C63.83 3.73718 63.6466 4.14987 63.509 4.6772C63.3714 5.1816 63.3026 5.80065 63.3026 6.53432V6.94702C63.3026 8.39145 63.5319 9.42318 63.9675 10.0881C64.4261 10.753 65.0681 11.074 65.8934 11.074C66.5813 11.074 67.1315 10.8676 67.5442 10.4549C67.9569 10.0422 68.1633 9.49197 68.1633 8.82707L66.031 8.46023Z" fill="#000"></path><path d="M143.067 0.18335H146.277V13.0227H143.067V0.18335Z" fill="#000"></path><path d="M154.302 2.70537V13.0227H151.092V2.70537H147.882V0.18335H157.741V2.70537H154.302V2.70537Z" fill="#000"></path><path d="M160.492 0.18335H164.023L167.783 13.0227H164.573L163.84 10.5007H159.919L159.14 13.0227H156.526L160.492 0.18335ZM163.289 8.20796L161.96 3.62247L160.561 8.20796H163.289Z" fill="#000"></path><path d="M177 13.0227H168.975V0.18335H172.185V10.5007H177V13.0227Z" fill="#000"></path><path d="M110.281 9.81287H107.071V13.0227H110.281V9.81287Z" fill="#000"></path></g><defs><clipPath><rect width="177" height="13.1833" fill="#000"></rect></clipPath></defs></svg>