<?xml version="1.0" encoding="UTF-8"?><!DOCTYPE svg PUBLIC "-//W3C//DTD SVG 1.1//EN" "http://www.w3.org/Graphics/SVG/1.1/DTD/svg11.dtd"><svg xmlns="http://www.w3.org/2000/svg"><symbol id="afems" viewBox="0 0 27 32"><path d="M19.255 31.91h-.873c-.076-.78.007-1.568-.111-2.362-.187.78-.374 1.561-.568 2.348-.291.104-.555.063-.853.035-.298-.794-.415-1.637-.707-2.438v2.445h-.886V27.98c.415-.062.838-.007 1.254-.041.235.89.471 1.761.707 2.638.02 0 .041.007.062.007l.672-2.618h1.303c.014 1.285 0 2.597 0 3.944zM19.893 29.583c-.014-.097-.014-.2-.035-.304-.166-.719.236-1.202.915-1.423.561-.187 1.109-.138 1.614.2.347.235.541.546.576.988-.257.159-.534.062-.818.076-.076-.311-.284-.484-.582-.567-.243-.069-.458-.02-.672.056-.236.09-.25.4-.007.552.173.11.374.173.568.228.36.11.728.194 1.088.318.11.034.2.152.277.242.492.587.402 1.478-.34 1.795-.755.325-1.517.346-2.23-.158-.354-.249-.493-.587-.396-.995h.839c.173.587.7.767 1.42.456.007-.131.021-.283.028-.421-.305-.277-.651-.353-.998-.394-.492-.055-.894-.283-1.247-.65zM14.681 31.192c.014.276.021.483.035.732-.326.076-.659.028-.984.041-.347.007-.693 0-1.033 0h-1.032c-.028-1.346-.014-2.645-.014-3.936.29-.09 2.474-.104 2.883-.028v.628c-.312.056-.63.021-.95.028-.319.007-.637 0-.99 0v.746c.602 0 1.191.007 1.815.007.028.297.055.552.083.822-.637-.11-1.254-.042-1.892-.055-.062.338-.034.649-.014 1.008.687.007 1.373.007 2.093.007zM.454 8.744c.333.152.52.387.693.622.624.85.831 1.851 1.026 2.853.02.103.034.2.055.303.11.532.208 1.071.333 1.603.131.56.277 1.112.644 1.582.09.11.125.262.201.448-.09-.048-.145-.069-.187-.103-.423-.38-.873-.746-1.261-1.16-.624-.664-1.005-1.472-1.24-2.349a6.2 6.2 0 0 1-.216-1.423L.44 9.034c0-.083.007-.159.014-.29zM6.656 28.042h-1.08c-.153.45-.306.877-.451 1.313-.153.449-.312.89-.444 1.34-.131.428-.353.835-.43 1.312h.922c.097-.256.18-.483.27-.718H6.9l.263.649h.977c-.506-1.326-.99-2.61-1.483-3.896zM5.7 30.404c.166-.476.326-.911.492-1.388.145.456.277.864.423 1.326-.32.021-.596.042-.915.063zM26.656 8.55c.077.781.104 1.493.007 2.211-.055.408-.083.815-.138 1.223-.173 1.236-.749 2.265-1.622 3.142-.326.332-.658.663-1.088.891.18-.366.409-.704.527-1.07.2-.629.367-1.278.492-1.927.18-.919.298-1.851.61-2.742.166-.47.409-.898.713-1.292.125-.159.305-.27.5-.435zM7.495 21.419c-1.06-.277-2.093-.643-2.987-1.299-1.462-1.077-2.412-2.5-2.828-4.31.14-.007.208.02.285.11.235.27.47.532.72.781.32.318.652.615.977.919.687.621 1.38 1.243 2.073 1.865.45.4.845.856 1.282 1.27.11.104.221.2.325.311.077.09.132.194.201.297a.39.39 0 0 0-.048.056zM25.492 15.596c-.242 1.54-.95 2.832-2.065 3.882-1.046.973-2.315 1.554-3.742 1.83.034-.048.07-.104.11-.145.347-.366.694-.732 1.047-1.098.166-.173.347-.339.52-.505.187-.172.374-.338.561-.51.45-.408.915-.802 1.352-1.23.63-.615 1.24-1.25 1.864-1.879.11-.117.235-.228.353-.345zM20.759 24.665c-.07.069-.118.124-.18.193-.458-.29-.894-.58-1.352-.842a7.625 7.625 0 0 0-.99-.47c-.846-.332-1.733-.553-2.62-.732-.27-.055-.548-.07-.818-.09-.284-.028-.575-.062-.86-.062-.311 0-.616.027-.928.069-.783.097-1.552.29-2.314.497-1.047.276-1.99.767-2.89 1.36-.139.09-.291.18-.45.277a2.788 2.788 0 0 1-.14-.22c1.4-1.127 3.029-1.68 4.72-2.121-1.164-.221-2.322-.463-3.444-.947.027-.096.055-.186.09-.297 3.382 1.347 6.729 1.347 10.083-.062.035.09.062.173.11.297-1.018.456-2.085.719-3.215.919 1.885.449 3.687.98 5.198 2.23zM9.255 31.959h-.783c-.09-.256-.125-3.475-.049-3.937h2.814v.545c-.139.166-.305.152-.464.152h-1.49l-.063.69c.312.105.596.042.88.056.285.014.569 0 .888 0v.712c-.125.027-.25.076-.382.076a29.33 29.33 0 0 1-1.101 0c-.084 0-.174-.014-.278-.021 0 .297-.02.58.007.87.035.29.111.567.021.857zM4.73 14.947c.083.048.18.083.256.145.34.29.652.607.866 1.015.45.857.756 1.768 1.11 2.666.276.705.554 1.41.838 2.107.014.041.02.083.048.18-.097-.049-.16-.063-.2-.104-.638-.677-1.297-1.333-1.9-2.038-.47-.552-.838-1.18-.907-1.934-.028-.331-.084-.656-.097-.988-.028-.338-.014-.676-.014-1.05zM3.676 8.91c.063-.028.125-.048.187-.076-.055.463-.152.912-.152 1.368.007.58.083 1.16.152 1.74.104.94.292 1.879.257 2.832-.02.49-.146.946-.319 1.444-.062-.104-.104-.166-.132-.235-.36-.884-.686-1.775-.838-2.722-.146-.85-.166-1.699.02-2.555.119-.539.41-.988.652-1.458.056-.103.104-.207.173-.338zM22.54 14.891c-.028.518-.076 1.036-.083 1.561 0 .435-.104.836-.243 1.237a3.1 3.1 0 0 1-.277.545c-.423.67-.929 1.278-1.497 1.838-.152.152-.277.338-.436.483a2.1 2.1 0 0 1-.541.38c.055-.117.118-.235.166-.36.243-.642.485-1.277.714-1.926.298-.83.555-1.679.97-2.46.25-.469.548-.904.978-1.222a.78.78 0 0 1 .145-.083c.02-.013.049 0 .104.007zM23.44 16.093a3.137 3.137 0 0 1-.318-1.146c-.07-.85 0-1.686.125-2.521.097-.643.166-1.292.215-1.941.034-.539-.049-1.07-.18-1.596a4.768 4.768 0 0 1-.056-.22c.09.054.146.075.173.11.686.898 1.067 1.892 1.067 3.039-.006.905-.124 1.775-.415 2.631-.146.435-.284.87-.437 1.306-.048.096-.11.193-.173.338zM25.097 8.98c-.035-.243-.062-.464-.097-.685-.18-1.001-.381-2.003-.54-3.011-.132-.843-.195-1.685.152-2.507.028-.063.042-.132.056-.2.006-.042 0-.09 0-.146.055-.027.117-.055.214-.103.139.352.284.69.402 1.036.104.29.167.594.27.89.257.76.299 1.548.264 2.335-.035.808-.264 1.582-.61 2.314-.014.028-.055.042-.11.076zM1.95 9.097c-.193-.408-.373-.822-.484-1.271a5.853 5.853 0 0 1-.167-2.245c.077-.622.236-1.236.402-1.844.111-.408.298-.788.458-1.188.187.055.235.186.277.31.194.601.312 1.202.25 1.852-.098.994-.285 1.968-.472 2.949-.062.31-.07.635-.104.953-.014.159-.041.31-.062.47-.035.007-.07.007-.097.014zM2.297 9.449c.014-.187.014-.346.042-.504.152-.836.34-1.665.637-2.452.23-.601.548-1.154.964-1.658.305-.366.7-.622 1.04-.933.027-.027.075-.027.18-.069-.617 2.059-1.262 4.041-2.863 5.616zM21.95 3.71c.112.082.223.172.34.255.93.656 1.49 1.56 1.9 2.597.325.829.45 1.699.65 2.555.015.056 0 .11 0 .2-1.642-1.54-2.286-3.557-2.951-5.56.027-.02.041-.034.062-.048zM20.204 7.349c-.062-.36-.256-.69-.249-1.119.333.214.624.408.95.622.318-.2.637-.408.963-.608.02.014.048.028.069.048l-.298 1.064c.284.228.568.47.908.746-.409.186-.783.007-1.171.124-.229.297-.25.719-.45 1.098-.16-.393-.313-.752-.472-1.14h-1.157c.221-.434.637-.531.907-.835zM19.699 10.989c.353.207.658.387 1.004.587.312-.18.638-.366 1.04-.6-.076.248-.132.42-.18.6-.049.187-.083.373-.125.58.291.207.582.422.936.677-.444.049-.818.083-1.213.124-.139.36-.284.726-.458 1.168a90.446 90.446 0 0 0-.457-1.16c-.43-.042-.804-.076-1.192-.111.07-.097.132-.187.215-.297.277 0 .45-.242.714-.394a39.518 39.518 0 0 0-.284-1.174zM5.229 13.82c.083-.351.166-.704.256-1.077-.298-.228-.582-.442-.929-.704.41-.145.777-.02 1.172-.124.138-.339.277-.691.443-1.092.263.304.277.705.458 1.022.346.208.748.049 1.157.16-.236.303-.561.434-.839.718.09.345.187.725.312 1.174-.395-.235-.714-.421-1.032-.615-.32.2-.624.394-.929.587-.028-.014-.049-.034-.07-.048zM13.26.38c.278.338.333.725.479 1.064.374.103.762-.028 1.192.117-.194.145-.333.249-.471.36-.146.11-.292.22-.45.351.117.373.228.746.36 1.175-.389-.228-.721-.422-1.068-.622-.298.186-.596.38-.935.594-.042-.435.221-.76.194-1.16-.284-.208-.59-.422-.95-.684.444-.042.832-.076 1.248-.118.062-.165.124-.352.187-.531.062-.173.132-.339.215-.546zM8.174 15.907c-.097-.332-.187-.656-.291-1.016.409.056.672.339 1.019.512.318-.187.637-.38 1.04-.615-.126.407-.223.739-.334 1.105.278.235.562.476.86.732-.18.131-.36.097-.534.104-.651.007-.61.007-.797.573-.062.18-.125.366-.263.553-.132-.332-.257-.663-.388-.995-.36-.228-.776-.076-1.192-.166.256-.338.617-.511.88-.787zM8.964 2.072c.139.4.256.746.367 1.078.388.152.797-.063 1.185.152a61.98 61.98 0 0 1-.88.683c.111.38.215.726.333 1.12-.388-.139-.7-.36-1.033-.567-.325.193-.644.387-1.018.615.103-.408.187-.746.284-1.126a48.588 48.588 0 0 1-.964-.74c.458-.04.811-.075 1.2-.117.29-.269.186-.753.526-1.098zM6.698 7.238c.402.042.755.076 1.178.118-.319.276-.582.504-.873.753.097.338.2.684.298 1.022-.021.014-.042.035-.07.048l-.956-.552c-.319.2-.63.387-.97.594.007-.373.194-.69.229-1.064-.18-.338-.61-.449-.86-.794.402-.042.776-.083 1.116-.125.27-.317.208-.752.492-1.098.16.415.291.76.416 1.098zM20.246 0c.742.532 1.552.822 2.135 1.457.443.484.748 1.016.859 1.651.02.11.014.221.02.339-1.205-.221-2.903-2.135-3.014-3.447zM3.78 3.564c.07-.718.291-1.347.783-1.893.5-.566 1.123-.918 1.76-1.277.16-.09.312-.187.479-.284C6.58 1.526 5.028 3.301 3.78 3.564zM16.317 16.832c.36-.283.651-.518.928-.746a59.509 59.509 0 0 1-.29-1.05c.408.097.665.415 1.046.505.312-.18.637-.36 1.012-.58-.125.414-.236.76-.347 1.132.277.228.561.45.901.725-.423.049-.776.09-1.171.139-.125.338-.264.683-.41 1.084-.256-.352-.262-.753-.463-1.078l-1.206-.13zM12.588 16.425c.194.11.354.2.506.29.16.09.32.18.472.27.367-.125.61-.457 1.04-.553-.119.393-.216.725-.327 1.098.284.22.575.435.908.69-.395.166-.77.035-1.171.125-.118.332-.25.684-.395 1.091-.201-.186-.208-.393-.277-.566-.07-.166-.125-.346-.201-.553h-1.185c.18-.407.61-.442.831-.725.125-.394-.194-.725-.2-1.167zM18.715 3.972c.117.38.221.711.332 1.043-.02.013-.041.034-.062.048-.312-.18-.63-.36-.963-.546-.305.18-.603.36-.95.567-.02-.408.194-.719.215-1.112-.256-.2-.534-.415-.845-.65.353-.214.734-.062 1.095-.152.2-.31.2-.732.492-1.098.09.228.159.4.228.58.063.166.125.339.201.525a110.598 110.598 0 0 1 1.102.042c.007.027.014.048.02.076-.297.235-.588.462-.865.677z" fill="#fff"/></symbol><symbol id="ballistic-table-hit" viewBox="0 0 17 16"><ellipse cx="8.444" cy="8" rx="7.995" ry="8" fill="#000"/><ellipse cx="8.444" cy="8" rx="5.33" ry="5.333" fill="#ECECEC"/><ellipse cx="8.444" cy="8" rx="2.665" ry="2.667" fill="#000"/></symbol><symbol id="claim-fox" viewBox="0 0 56 24"><path d="M52.127 9.959c.758.383 1.517.383 1.896.383.38 0 .38-.383.38-.383h.379s.379 0 .379-.383c0 0 .38-.383.38-.766s-.38-.383-.38-.383c-.38 0-1.138-.766-1.517-1.532-.38-.383 0-1.15 0-1.532 0-.384 0-.384-.38-.767-.379-.383-1.516-1.149-1.516-1.149-.38-.383 1.137-2.68.758-3.064-.38 0-1.138 1.15-1.896 1.532 0-.766.38-1.915 0-1.915s-.759 1.15-1.517 1.915c-.38.383-.38.383-.38.766h-.379c-1.517.383-2.654 1.15-4.55 1.532-1.897.383-5.69 0-8.724-.383-4.171 0-9.102-.383-10.998.383-1.896.766-3.413.383-5.31 1.15-3.034 1.532-4.171 4.596-10.24 8.043-4.93 2.682-7.964 4.597-7.964 5.746 0 .766 1.517 1.15 5.31.766 3.792-.383 7.205-2.681 9.102-3.83 1.896-1.15 3.792-3.065 4.172-3.065.379 0 .379 1.533.379 2.299s-.38 1.149-1.138 1.149c-.758 0-.758 1.149-.758 3.064s.379 3.064.758 3.83c.38.766 3.034.766 3.034.383s-.758-.766-1.517-1.149c-.758-.383-.758-.766-.758-1.532s0-2.681.758-3.064c.759-.383 3.413-2.298 3.793-2.298h.758c-.379 0-1.137 1.149-.758 1.915s.758 1.532 1.517 1.915c.758.383 1.896 2.681 2.275 3.064.38.383 2.276.383 2.276 0s-.38-.383-1.138-.766c-.758-.383-1.138-2.681-1.896-3.447-.759-.766-.759-1.15 0-1.532.758-.383 2.275-2.682 3.034-3.065.758 0 2.275.767 3.413.767s1.896.383 2.276.766c.379.383.758 2.298.758 3.064s.38 1.915 0 2.298-1.517 0-2.275 0c-.759 0-1.138.766-.759 1.15.38.382 1.517.382 2.655 0 1.138-.384 2.275-1.15 2.275-1.916s0-2.681.38-2.681c.379 0 .379 1.149.758 1.915.38.766.759 1.149 1.138 1.915.38.766.759 2.298 1.896 2.298 1.138 0 1.897-.383 1.517-.766-.379-.383-.758 0-1.517-.766-.758-.766-.758-2.298-.758-3.064s-.759-1.915-.759-3.064c-.379-1.15 0-1.916.38-1.916.758 0 1.517-.766 3.034-1.532s3.413-2.681 4.55-3.064c.76.383 1.897 0 3.414.766z" fill="#fff"/></symbol><symbol id="edit" viewBox="0 0 24 24"><path d="M12 20h9M16.5 3.5a2.121 2.121 0 1 1 3 3L7 19l-4 1 1-4L16.5 3.5z" stroke="#fff" stroke-width="2" stroke-linecap="round" stroke-linejoin="round"/></symbol><symbol id="facebook-white" viewBox="0 0 12 23"><path d="M11.987.16v3.536H9.884c-.768 0-1.286.161-1.554.483-.267.321-.401.803-.401 1.446v2.531h3.924l-.522 3.964H7.929v10.166H3.83V12.12H.415V8.156H3.83v-2.92c0-1.66.465-2.946 1.393-3.857C6.152.47 7.388.01 8.933 0c1.313 0 2.33.054 3.054.16z" fill="#fff"/></symbol><symbol id="flag-de-de" viewBox="0 0 28 18"><path d="M27.667 1H1v16h26.667V1z" fill="#000"/><path d="M27.667 6.334H1v10.667h26.667V6.334z" fill="#D00"/><path d="M27.667 11.666H1v5.333h26.667v-5.333z" fill="#FFCE00"/><path stroke="#000" d="M.5.5h27v17H.5z"/></symbol><symbol id="flag-en-gb" viewBox="0 0 32 18"><path d="M31.979 1H0v16h31.979V1z" fill="#fff"/><path d="M14.39 10.59V17h3.2v-6.41h14.389V7.4h-14.39V1h-3.2v6.4H0v3.19h14.39z" fill="#CF142B"/><path d="M18.656 6.173V1h10.357L18.656 6.173zM18.656 11.816V17h10.357l-10.357-5.184zM13.323 11.816V17H2.965l10.358-5.184zM13.323 6.173V1H2.965l10.358 5.173zM0 2.482v3.851h7.69L0 2.483zM31.979 2.482v3.851h-7.68l7.68-3.85zM31.979 15.506v-3.84h-7.68l7.68 3.84zM0 15.506v-3.84h7.69L0 15.506z" fill="#00247D"/><path d="M31.979 1h-1.771L19.563 6.333h1.781L32 1M12.416 11.666h-1.77L0 16.999h1.781l10.656-5.333M8.885 6.333h1.771L0 1v.896l8.885 4.437zM23.093 11.666h-1.77l10.656 5.333v-.896l-8.886-4.437z" fill="#CF142B"/><path stroke="#000" d="M.5.5h31v17H.5z"/></symbol><symbol id="flag-en-us" viewBox="0 0 32 18"><path d="M31.399 1H1v16h30.399z" fill="#fff"/><path d="M31.399 1H1v1.226h30.399zm0 2.46H1v1.227h30.399zm0 2.466H1v1.226h30.399zm0 2.46H1v1.227h30.399zm0 2.464H1v1.226h30.399zm0 2.463H1v1.226h30.399zm0 2.45H1v1.227h30.399z" fill="#b22234"/><path d="M13.16 1H1v8.613h12.16z" fill="#3c3b6e"/><path d="M1.567 1.7l.294.213-.111.334.294-.202.283.202-.111-.334.294-.213h-.355l-.111-.345-.112.345zm2.017 0l.294.213-.112.334.294-.202.284.202-.112-.334.294-.213h-.364l-.102-.345-.111.345zm2.016 0l.294.213-.111.334.294-.202.283.202-.111-.334.294-.213h-.365l-.101-.345-.112.345zm2.017 0l.294.213-.112.334.284-.202.294.202-.112-.334.294-.213h-.365l-.111-.345-.101.345zm2.016 0l.294.213-.111.334.283-.202.294.202-.111-.334.294-.213h-.365l-.112-.345-.1.345zm2.017 0l.294.213-.112.334.284-.202.294.202-.112-.334.294-.213h-.365l-.111-.345-.112.345zm-9.07.861l.285.213-.102.344.284-.212.294.212-.112-.344.284-.213h-.355l-.111-.334-.112.334zm2.017 0l.284.213-.111.344.293-.212.294.212-.111-.344.283-.213h-.354l-.112-.334-.111.334zm2.017 0l.283.213-.111.344.294-.212.294.212-.112-.344.284-.213H7.19l-.111-.334-.112.334zm2.016 0l.284.213-.112.344.294-.212.294.212-.111-.344.283-.213h-.354l-.112-.334-.111.334zm2.017 0l.283.213-.111.344.294-.212.283.212-.1-.344.283-.213h-.355l-.111-.334L11 2.56zm-9.08.871l.294.203-.111.345.294-.213.283.213-.111-.345.294-.203h-.355l-.111-.344-.112.344zm2.017 0l.294.203-.112.345.294-.213.284.213-.112-.345.294-.203h-.364l-.102-.344-.111.344zm2.016 0l.294.203-.111.345.294-.213.283.213-.111-.345.294-.203h-.365l-.101-.344-.112.344zm2.017 0l.294.203-.112.345.284-.213.294.213-.112-.345.294-.203h-.365l-.111-.344-.101.344zm2.016 0l.294.203-.111.345.283-.213.294.213-.111-.345.294-.203h-.365l-.112-.344-.1.344zm2.017 0l.294.203-.112.345.284-.213.294.213-.112-.345.294-.203h-.365l-.111-.344-.112.344zM2.6 4.294l.294.213-.112.334.294-.203.284.203-.111-.334.293-.213H3.18l-.102-.345-.111.345zm2.016 0l.294.213-.111.334.294-.203.283.203-.111-.334.294-.213h-.365l-.101-.345-.112.345zm2.017 0l.294.213-.112.334.284-.203.294.203-.112-.334.294-.213h-.364L7.1 3.949 7 4.294zm2.016 0l.294.213-.111.334.284-.203.293.203-.111-.334.294-.213h-.365l-.111-.345-.112.345zm2.017 0l.294.213-.112.334.284-.203.294.203-.112-.334.294-.213h-.365l-.111-.345-.112.345zm-9.07.861l.295.203-.112.344.294-.213.284.213-.112-.344.294-.203h-.354l-.112-.344-.111.344zm2.017 0l.294.203-.111.344.294-.213.283.213-.111-.344.294-.203h-.355l-.111-.344-.112.344zm2.017 0l.294.203-.112.344.294-.213.284.213-.112-.344.294-.203h-.365l-.101-.344-.111.344zm2.016 0l.294.203-.111.344.283-.213.294.213-.111-.344.294-.203h-.365l-.112-.344-.101.344zm2.017 0l.294.203-.112.344.284-.213.294.213-.112-.344.294-.203h-.365l-.111-.344-.102.344zm2.016 0l.294.203-.111.344.283-.213.294.213-.111-.344.294-.203h-.365l-.112-.344-.111.344zM1.618 6.846l.294.213-.111.344.293-.212.284.212-.111-.344.293-.213h-.364l-.102-.334-.111.334zm2.017 0l.293.213-.111.344.284-.212.294.212-.112-.344.294-.213h-.365l-.111-.334-.102.334zm2.016 0l.294.213-.112.344.284-.212.294.212L6.3 7.06l.293-.213H6.23l-.112-.334-.111.334zm2.017 0l.293.213-.111.344.284-.212.293.212-.111-.344.294-.213h-.365l-.111-.334-.112.334zm2.016 0l.294.213-.112.344.284-.212.294.212-.112-.344.294-.213h-.364l-.112-.334-.111.334zm2.016 0l.294.213-.111.344.284-.212.293.212-.111-.344.284-.213h-.355l-.111-.334-.112.334zM1.598 8.57l.284.213-.112.344.294-.213.294.213-.112-.344.284-.213h-.355l-.111-.335-.111.335zm2.016 0l.284.213-.111.344.293-.213.294.213-.111-.344.284-.213h-.355l-.112-.335-.111.335zm2.017 0l.283.213-.111.344.294-.213.294.213-.112-.344.284-.213h-.355l-.111-.335-.112.335zm2.016 0l.284.213-.111.344.293-.213.294.213-.111-.344.283-.213h-.354l-.112-.335-.111.335zm2.017 0l.283.213-.111.344.294-.213.284.213-.102-.344.284-.213h-.355l-.111-.335-.112.335zm2.016 0l.284.213-.112.344.294-.213.284.213-.111-.344.293-.213h-.354l-.112-.335-.111.335zM2.611 5.995l.284.203-.101.344.283-.213.294.213-.111-.344.283-.203H3.19l-.112-.345-.111.345zm2.017 0l.283.203-.101.344.284-.213.294.213-.112-.344.284-.203h-.355l-.111-.345-.112.345zm2.016 0l.284.203-.112.344.294-.213.294.213-.111-.344.283-.203h-.354L7.11 5.65 7 5.995zm2.017 0l.283.203-.111.344.294-.213.294.213-.112-.344.284-.203h-.355l-.111-.345-.112.345zm2.016 0l.284.203-.112.344.294-.213.294.213-.111-.344.283-.203h-.354l-.112-.345-.111.345zM2.601 7.707l.294.213-.112.345.294-.213.284.213-.111-.345.293-.213H3.18l-.102-.334-.111.334zm2.016 0l.294.213-.111.345.294-.213.283.213-.111-.345.294-.213h-.365l-.101-.334-.112.334zm2.017 0l.294.213-.112.345.284-.213.294.213-.112-.345.294-.213h-.364L7.1 7.373 7 7.707zm2.016 0l.294.213-.111.345.284-.213.293.213L9.3 7.92l.294-.213h-.365l-.111-.334-.112.334zm2.017 0l.294.213-.112.345.284-.213.294.213-.112-.345.294-.213h-.365l-.111-.334-.112.334z" fill="#fff"/><path d="M31 1H1v16h30z" fill="#fff"/><path d="M31 1H1v1.226h30zm0 2.46H1v1.227h30zm0 2.466H1v1.226h30zm0 2.46H1v1.227h30zm0 2.464H1v1.226h30zm0 2.463H1v1.226h30zm0 2.45H1v1.227h30z" fill="#b22234"/><path d="M13 1H1v8.613h12z" fill="#3c3b6e"/><path d="M1.56 1.7l.29.213-.11.334.29-.202.28.202-.11-.334.29-.213h-.35l-.11-.345-.11.345zm1.99 0l.29.213-.11.334.29-.202.28.202-.11-.334.29-.213h-.36l-.1-.345-.11.345zm1.99 0l.29.213-.11.334.29-.202.28.202-.11-.334.29-.213h-.36l-.1-.345-.11.345zm1.99 0l.29.213-.11.334.28-.202.29.202-.11-.334.29-.213H8.1l-.11-.345-.1.345zm1.99 0l.29.213-.11.334.28-.202.29.202-.11-.334.29-.213h-.36l-.11-.345-.1.345zm1.99 0l.29.213-.11.334.28-.202.29.202-.11-.334.29-.213h-.36l-.11-.345-.11.345zm-8.95.861l.28.213-.1.344.28-.212.29.212-.11-.344.28-.213h-.35l-.11-.334-.11.334zm1.99 0l.28.213-.11.344.29-.212.29.212-.11-.344.28-.213h-.35l-.11-.334-.11.334zm1.99 0l.28.213-.11.344.29-.213.29.213-.11-.344.28-.213h-.35L7 2.227l-.11.334zm1.99 0l.28.213-.11.344.29-.212.29.212-.11-.344.28-.213H9.1l-.11-.334-.11.334zm1.99 0l.28.213-.11.344.29-.212.28.212-.1-.344.28-.213h-.35l-.11-.334-.11.334zm-8.96.871l.29.203-.11.345.29-.213.28.213-.11-.345.29-.203h-.35l-.11-.344-.11.344zm1.99 0l.29.203-.11.345.29-.213.28.213-.11-.345.29-.203h-.36l-.1-.344-.11.344zm1.99 0l.29.203-.11.345.29-.213.28.213-.11-.345.29-.203h-.36l-.1-.344-.11.344zm1.99 0l.29.203-.11.345.28-.213.29.213-.11-.345.29-.203H8.1l-.11-.344-.1.344zm1.99 0l.29.203-.11.345.28-.213.29.213-.11-.345.29-.203h-.36l-.11-.344-.1.344zm1.99 0l.29.203-.11.345.28-.213.29.213-.11-.345.29-.203h-.36l-.11-.344-.11.344zm-8.93.862l.29.213-.11.334.29-.203.28.203-.11-.334.29-.213h-.36l-.1-.345-.11.345zm1.99 0l.29.213-.11.334.29-.203.28.203-.11-.334.29-.213h-.36l-.1-.345-.11.345zm1.99 0l.29.213-.11.334.28-.203.29.203-.11-.334.29-.213h-.36l-.11-.345-.1.345zm1.99 0l.29.213-.11.334.28-.203.29.203-.11-.334.29-.213h-.36l-.11-.345-.11.345zm1.99 0l.29.213-.11.334.28-.203.29.203-.11-.334.29-.213h-.36L11 3.949l-.11.345zm-8.95.861l.29.203-.11.344.29-.212.28.212-.11-.344.29-.203h-.35l-.11-.344-.11.344zm1.99 0l.29.203-.11.344.29-.212.28.212-.11-.344.29-.203h-.35l-.11-.344-.11.344zm1.99 0l.29.203-.11.344.29-.212.28.212-.11-.344.29-.203h-.36l-.1-.344-.11.344zm1.99 0l.29.203-.11.344.28-.212.29.212-.11-.344.29-.203h-.36l-.11-.344-.1.344zm1.99 0l.29.203-.11.344.28-.212.29.212-.11-.344.29-.203h-.36l-.11-.344-.1.344zm1.99 0l.29.203-.11.344.28-.213.29.213-.11-.344.29-.203h-.36L12 4.811l-.11.344zM1.61 6.846l.29.213-.11.344.29-.212.28.212-.11-.344.29-.213h-.36l-.1-.334-.11.334zm1.99 0l.29.213-.11.344.28-.212.29.212-.11-.344.29-.213h-.36l-.11-.334-.1.334zm1.99 0l.29.213-.11.344.28-.212.29.212-.11-.344.29-.213h-.36l-.11-.334-.11.334zm1.99 0l.29.213-.11.344.28-.212.29.212-.11-.344.29-.213h-.36l-.11-.334-.11.334zm1.99 0l.29.213-.11.344.28-.212.29.212-.11-.344.29-.213h-.36l-.11-.334-.11.334zm1.99 0l.29.213-.11.344.28-.212.29.212-.11-.344.28-.213h-.35l-.11-.334-.11.334zM1.59 8.57l.28.213-.11.344.29-.213.29.213-.11-.344.28-.213h-.35l-.11-.335-.11.335zm1.99 0l.28.213-.11.344.29-.213.29.213-.11-.344.28-.213h-.35l-.11-.335-.11.335zm1.99 0l.28.213-.11.344.29-.213.29.213-.11-.344.28-.213h-.35l-.11-.335-.11.335zm1.99 0l.28.213-.11.344.29-.213.29.213-.11-.344.28-.213h-.35l-.11-.335-.11.335zm1.99 0l.28.213-.11.344.29-.213.28.213-.1-.344.28-.213h-.35l-.11-.335-.11.335zm1.99 0l.28.213-.11.344.29-.213.28.213-.11-.344.29-.213h-.35L12 8.234l-.11.335zM2.59 5.995l.28.203-.1.344.28-.213.29.213-.11-.344.28-.203h-.35l-.11-.345-.11.345zm1.99 0l.28.203-.1.344.28-.213.29.213-.11-.344.28-.203h-.35l-.11-.345-.11.345zm1.99 0l.28.203-.11.344.29-.213.29.213-.11-.344.28-.203h-.35l-.11-.345-.11.345zm1.99 0l.28.203-.11.344.29-.213.29.213-.11-.344.28-.203h-.35l-.11-.345-.11.345zm1.99 0l.28.203-.11.344.29-.213.29.213-.11-.344.28-.203h-.35l-.11-.345-.11.345zM2.58 7.707l.29.213-.11.345.29-.213.28.213-.11-.345.29-.213h-.36l-.1-.334-.11.334zm1.99 0l.29.213-.11.345.29-.213.28.213-.11-.345.29-.213h-.36l-.1-.334-.11.334zm1.99 0l.29.213-.11.345.28-.213.29.213-.11-.345.29-.213h-.36l-.11-.334-.1.334zm1.99 0l.29.213-.11.345.28-.213.29.213-.11-.345.29-.213h-.36l-.11-.334-.11.334zm1.99 0l.29.213-.11.345.28-.213.29.213-.11-.345.29-.213h-.36L11 7.373l-.11.334z" fill="#fff"/><path d="M.5.5h31v17H.5z" fill="none" stroke="#000"/></symbol><symbol id="flag-es-es" viewBox="0 0 25 18"><path d="M1 1h24v16H1V1z" fill="#C60B1E"/><path d="M1 5h24v8H1V5z" fill="#FFC400"/><path stroke="#000" d="M.5.5h24v17H.5z"/></symbol><symbol id="flag-fr-fr" viewBox="0 0 26 18"><path stroke="#000" d="M.5.5h25v17H.5z"/><path d="M25 1H1v16h24V1z" fill="#ED2939"/><path d="M17 1H1v16h16V1z" fill="#fff"/><path d="M9 1H1v16h8V1z" fill="#002395"/></symbol><symbol id="flag-it-it" viewBox="0 0 25 16"><path d="M9 0H1v16h8V0z" fill="#009246"/><path d="M17 0H9v16h8V0z" fill="#fff"/><path d="M25 0h-8v16h8V0z" fill="#CE2B37"/><path stroke="#000" d="M.5.5h24v15H.5z"/></symbol><symbol id="flag-pl-pl" viewBox="0 0 26 16"><path d="M25.6 0H0v16h25.6V0z" fill="#fff"/><path d="M25.6 8H0v8h25.6V8z" fill="#DC143C"/><path stroke="#000" d="M.5.5h25v15H.5z"/></symbol><symbol id="flag-sv-se" viewBox="0 0 26 17"><path d="M25.6 0H0v16h25.6V0z" fill="#006AA7"/><path d="M11.2 0H8v16h3.2V0z" fill="#FECC00"/><path d="M25.6 6.4H0v3.2h25.6V6.4z" fill="#FECC00"/><path stroke="#000" d="M.5.5h25v16H.5z"/></symbol><symbol id="hamburger" viewBox="0 0 20 11"><path fill="#fff" d="M0 5h17v1H0zM0 10h20v1H0zM0 0h20v1H0z"/></symbol><symbol id="instagram-white" viewBox="0 0 22 22"><path d="M14.429 11c0-.946-.335-1.754-1.005-2.424A3.303 3.303 0 0 0 11 7.571c-.946 0-1.754.335-2.424 1.005A3.303 3.303 0 0 0 7.571 11c0 .947.335 1.755 1.005 2.424A3.303 3.303 0 0 0 11 14.43c.947 0 1.755-.335 2.424-1.005A3.304 3.304 0 0 0 14.43 11zm1.848 0c0 1.464-.514 2.71-1.54 3.737-1.027 1.027-2.273 1.54-3.737 1.54s-2.71-.514-3.737-1.54C6.237 13.71 5.723 12.464 5.723 11s.514-2.71 1.54-3.737C8.29 6.237 9.536 5.723 11 5.723s2.71.514 3.737 1.54c1.027 1.027 1.54 2.273 1.54 3.737zm1.446-5.491c0 .34-.12.63-.361.87a1.187 1.187 0 0 1-.87.362c-.34 0-.63-.12-.871-.361a1.187 1.187 0 0 1-.362-.871c0-.34.12-.63.362-.87.24-.242.53-.362.87-.362.34 0 .63.12.87.361.242.242.362.532.362.871zM11 2.563H8.563c-.33 0-.76.013-1.286.04-.527.027-.987.071-1.38.134a4.72 4.72 0 0 0-.964.24c-.446.18-.84.438-1.178.778-.34.339-.599.732-.777 1.178-.098.259-.179.58-.241.964-.063.384-.107.844-.134 1.38-.027.536-.04.964-.04 1.286v4.875c0 .303.013.736.04 1.299.027.562.071 1.022.134 1.38.062.356.143.673.24.95.18.447.438.84.778 1.179.339.339.732.598 1.178.776.259.099.58.183.964.255.384.071.844.116 1.38.134.536.018.964.031 1.286.04.321.009.794.009 1.42 0 .624-.009.963-.013 1.017-.013.054 0 .397.004 1.031.013a35.89 35.89 0 0 0 1.407 0l1.299-.04a8.671 8.671 0 0 0 1.38-.134c.356-.072.673-.156.95-.255.447-.178.84-.437 1.179-.776.339-.34.598-.732.776-1.179a5.76 5.76 0 0 0 .255-.95c.071-.376.116-.836.134-1.38.018-.545.031-.978.04-1.3.009-.32.009-.79 0-1.406-.009-.616-.013-.96-.013-1.03 0-.072.004-.412.013-1.019s.009-1.08 0-1.42c-.009-.339-.022-.767-.04-1.285a9.91 9.91 0 0 0-.134-1.38 4.912 4.912 0 0 0-.255-.964 3.475 3.475 0 0 0-.776-1.178 3.474 3.474 0 0 0-1.179-.777 5.06 5.06 0 0 0-.95-.241 12.237 12.237 0 0 0-1.38-.134c-.545-.027-.978-.04-1.3-.04h-2.436zM21.286 11c0 2.045-.023 3.46-.067 4.246-.09 1.857-.643 3.294-1.66 4.312-1.019 1.018-2.456 1.572-4.313 1.66-.786.046-2.201.068-4.246.068-2.045 0-3.46-.023-4.245-.067-1.858-.09-3.295-.643-4.313-1.66C1.424 18.54.871 17.102.782 15.245.736 14.46.713 13.045.713 11c0-2.045.023-3.46.067-4.245.09-1.858.643-3.295 1.661-4.313C3.46 1.424 4.897.871 6.755.782 7.54.736 8.955.713 11 .713s3.46.023 4.246.067c1.857.09 3.294.643 4.312 1.661 1.018 1.018 1.572 2.455 1.66 4.313.046.785.068 2.2.068 4.245z" fill="#fff"/></symbol><symbol id="intertek" viewBox="0 0 25 32"><path d="M0 27.026h.887v4.885H0v-4.885zm2.888 1.497l-.432.62v-.652h-.785v3.42h.793v-2.615a1.31 1.31 0 0 1 .753-.258c.612 0 .706.41.706.926v1.947h.785v-2.165c0-.716-.188-1.336-1.146-1.336-.125 0-.408.017-.674.113zm2.707-.676v.644h-.087l-.36.587h.43l-.007 1.876c-.008.305-.008.547.196.78.212.234.479.266.667.266.18 0 .306-.024.4-.048l.463-.636a1.429 1.429 0 0 1-.447.088c-.22 0-.353-.096-.416-.185-.078-.12-.078-.265-.078-.644l.015-1.497h.762v-.587h-.754v-.893l-.784.249zm3.39 1.11c-.409 0-.675.33-.754.781h1.436c-.008-.12-.016-.378-.196-.571a.637.637 0 0 0-.487-.21zM7.36 30.222c0-1.062.636-1.81 1.609-1.81.235 0 .47.04.69.144.8.379.808 1.288.816 1.707h-2.26c.024.225.047.587.322.86.228.226.557.299.871.299.455 0 .816-.153.95-.21l-.385.684a3.046 3.046 0 0 1-.8.113c-1.2-.008-1.813-.757-1.813-1.787zm4.779-1.682l-.385.555v-.603h-.808v3.42h.808v-2.64c.267-.168.518-.209.675-.209.275 0 .47.105.651.194v-.79c-.094-.023-.165-.047-.314-.047a1.77 1.77 0 0 0-.627.12zm1.6-.692v.644h-.086l-.36.587h.43l-.015 1.876c-.008.305-.008.547.196.78.212.234.479.266.667.266.18 0 .306-.024.4-.048l.463-.636a1.428 1.428 0 0 1-.447.088c-.22 0-.353-.096-.416-.185-.078-.12-.078-.265-.078-.644l.015-1.497h.762v-.587h-.754v-.893l-.777.249zm3.39 1.11c-.408 0-.675.33-.753.781h1.436c-.008-.12-.024-.378-.196-.571a.637.637 0 0 0-.487-.21zm-1.616 1.264c0-1.062.635-1.81 1.608-1.81.236 0 .471.04.69.144.801.379.809 1.288.817 1.707h-2.26c.024.225.047.587.322.86.227.226.557.299.87.299.456 0 .817-.153.95-.21l-.384.684a3.059 3.059 0 0 1-.809.113c-1.2-.008-1.804-.757-1.804-1.787zm3.578-3.195v4.885h.792V30.11l1.483 1.802h.981l-1.585-1.899 1.397-1.513h-.926l-1.35 1.457v-2.922h-.792v-.008zM22.308 24.515H0v.636h22.308v-.636zM23.014 22.785h-.29v-1.192H22.3v-.257h1.146v.258h-.424v1.19h-.008zM24.96 22.785h-.275v-1.208l-.259 1.208h-.29l-.259-1.208v1.208h-.274v-1.441h.431l.251 1.135.251-1.135h.424v1.44zM4.873 19.63c.086-.129.078-.258-.024-.346-.117-.097-.274-.04-.455.185-.133.16-.22.346-.055.483.11.088.228.048.33-.057l.321.266c-.274.274-.604.298-.87.072-.33-.281-.346-.684-.04-1.062s.714-.427.997-.185c.306.257.337.58.125.901l-.33-.257zM4.865 20.789l.777-1.28.902.58-.18.297-.542-.346-.11.185.455.29-.18.298-.455-.29-.126.201.565.363-.18.297-.926-.595zM6.662 21.231l-.212.475-.392-.177.604-1.376.565.257c.4.186.47.37.353.636-.07.161-.188.266-.345.242.102.112.164.185.039.458-.079.178-.11.242-.063.258l-.016.04-.392-.185c0-.032.031-.129.086-.25.079-.177.079-.249-.102-.338l-.125-.04zm.125-.306l.157.073c.118.056.204.048.244-.04.039-.097 0-.177-.095-.218l-.18-.08-.126.265zM7.792 20.676l1.145.354-.11.378-.368-.112-.314 1.062-.408-.129.314-1.062-.37-.113.11-.378zM8.78 22.52l.283-1.482.424.089-.283 1.48-.424-.088zM9.55 22.672l.148-1.497 1.013.105-.032.346-.588-.065-.024.274.463.048-.031.346-.463-.048-.055.523-.432-.032zM10.828 22.777l.024-1.505.431.008-.023 1.505-.432-.008zM12.335 21.787c-.024-.153-.118-.234-.251-.226-.15.016-.228.17-.204.459.015.21.078.402.29.386.141-.016.196-.128.196-.273l.408-.04c0 .394-.22.643-.565.675-.431.04-.714-.24-.76-.724-.048-.483.211-.813.58-.845.4-.04.643.17.706.547l-.4.04zM13.018 22.64l.125-1.578.424-.104.792 1.36-.416.096-.094-.185-.416.097v.201l-.415.113zm.431-1.183l-.008.555.267-.064-.259-.491zM13.857 20.901l1.13-.418.133.37-.36.137.368 1.046-.4.153-.369-1.046-.36.137-.142-.379zM15.725 21.77l-.636-1.36.384-.193.636 1.36-.384.194zM17.168 20.072c.26.435.157.845-.172 1.055-.345.225-.73.12-.997-.314-.243-.403-.165-.813.18-1.03.4-.258.785-.049.99.29zm-.808.507c.102.161.267.338.44.234.156-.097.125-.298 0-.507-.102-.177-.275-.322-.44-.21-.157.097-.094.322 0 .483zM18.04 19.428l-.228-.249-.298-.37.314-.274.949 1.151-.306.266-.871-.322.227.25.299.361-.314.274-.95-1.15.306-.266.871.33zM5.061 3.702l-.894-1.191.321-.258.903 1.192-.33.257zM5.548 2.052a.133.133 0 0 0-.102-.056.251.251 0 0 0-.102.032c-.079.048-.095.097-.063.145.117.193.643-.314.934.145.18.298.07.571-.22.756-.275.177-.573.097-.722-.128l.33-.21c.039.04.078.065.117.065a.2.2 0 0 0 .118-.033c.086-.056.118-.128.086-.185-.117-.193-.635.33-.934-.153-.164-.273-.062-.53.204-.7.29-.185.534-.096.699.113l-.345.21zM7.4 1.424c.211.467.07.845-.26 1.006-.353.17-.706.009-.918-.458-.196-.427-.078-.821.267-.982.4-.185.746.08.91.434zm-.809.387c.079.177.22.37.393.29.156-.073.149-.274.047-.5-.087-.185-.236-.354-.393-.273-.165.08-.125.306-.047.483zM8.568 1.457c.04.072.102.096.165.08.126-.032.15-.185.102-.378a.4.4 0 0 1-.25.177c-.275.072-.456-.161-.51-.362-.087-.346.085-.556.344-.628.338-.089.605.089.73.604.11.442-.008.78-.337.869-.22.056-.448.024-.573-.258l.33-.104zM8.733.78C8.71.676 8.616.61 8.53.636c-.102.024-.133.112-.102.241.024.113.102.177.196.153.11-.032.134-.137.11-.25zM9.73.088c.314-.04.549.186.612.668.055.419-.032.797-.424.846-.384.048-.565-.29-.62-.709-.063-.53.157-.764.432-.805zm.259.74c-.016-.152-.047-.434-.22-.41-.157.025-.126.322-.11.46.032.257.086.426.22.402.125-.017.141-.202.11-.451zM11 0c.315-.008.527.241.534.732.008.419-.117.79-.51.797-.392.008-.533-.354-.533-.773C10.483.21 10.726.008 11 0zm.181.765c0-.153 0-.443-.18-.435-.165 0-.157.306-.157.443.008.257.04.426.173.426.133 0 .164-.185.164-.434zM12.366 1.57l-.353-.04.087-.854-.275-.032.031-.298c.188.016.33-.048.4-.298l.267.024-.157 1.497zM12.782 1.634l.079-.427.353.073-.079.426-.353-.072zM12.9.982l.078-.427.353.073-.078.426L12.9.982zM13.316 1.73a.575.575 0 0 1 .25-.362c.26-.193.597-.201.66-.434a.152.152 0 0 0-.102-.186c-.133-.04-.204.089-.243.226l-.306-.089c.117-.418.353-.53.65-.442.244.072.432.265.338.595-.07.25-.25.306-.44.378-.101.04-.203.073-.282.105l.542.153-.094.346-.973-.29zM15.38.853c.29.12.392.435.211.893-.157.387-.416.677-.777.524-.36-.153-.353-.54-.196-.926.204-.507.502-.604.761-.49zm-.134.773c.055-.145.173-.403.008-.475-.15-.065-.267.217-.314.346-.094.241-.126.41-.008.467.118.048.228-.113.314-.338zM16.533 1.416c.274.153.337.483.11.91-.197.37-.487.62-.824.426-.346-.193-.29-.57-.087-.941.244-.475.558-.531.8-.395zm-.22.757c.07-.137.212-.378.055-.467-.141-.08-.29.185-.353.306-.118.225-.173.394-.055.459.118.064.243-.089.353-.298zM16.988 2.165c.165-.233.424-.201.636-.04.22.16.282.418.149.611-.079.113-.18.177-.306.153.07.13.07.258-.032.403-.165.241-.44.25-.69.072-.228-.169-.346-.426-.157-.692.102-.145.212-.169.345-.153-.04-.113-.055-.201.055-.354zm.172.893c.071-.096.055-.193-.023-.25-.079-.055-.173-.047-.243.057-.079.113-.024.226.07.266.071.04.142.008.197-.073zm.314-.483c.055-.08.04-.169-.031-.217-.07-.048-.157-.048-.22.04-.063.089-.031.17.04.218.07.048.156.04.211-.04zM4.465 16.555h3.28c.439 1.44 1.051 2.592 1.773 3.292-2.064-.419-3.845-1.626-5.053-3.292zm8.364 3.292c2.056-.427 3.837-1.626 5.046-3.292h-3.28c-.432 1.44-1.044 2.592-1.766 3.292zm-1.655.04c1.114 0 2.102-1.304 2.73-3.332H8.451c.62 2.028 1.608 3.332 2.723 3.332zM8.23 7.074a18.456 18.456 0 0 0-.486 3.984h6.85c-.024-1.448-.197-2.809-.487-3.984H8.231zm6.575 8.717h3.563a8.725 8.725 0 0 0 1.153-3.976h-4.221c-.032 1.44-.204 2.785-.495 3.976zm-6.575 0h5.877c.283-1.167.463-2.527.487-3.976h-6.85c.023 1.457.204 2.809.486 3.976zm2.943-12.83c-1.115 0-2.103 1.313-2.731 3.349h5.461c-.628-2.036-1.616-3.348-2.73-3.348zm-1.664.04c-2.064.427-3.853 1.635-5.061 3.309h3.28c.44-1.449 1.06-2.6 1.781-3.308zm-5.54 12.79h3.563a18.148 18.148 0 0 1-.487-3.976h-4.23A8.725 8.725 0 0 0 3.97 15.79zM12.83 3c.721.71 1.34 1.86 1.772 3.309h3.288c-1.208-1.674-2.997-2.882-5.06-3.308zm1.984 4.073c.29 1.191.463 2.544.487 3.984h4.221a8.78 8.78 0 0 0-1.145-3.984h-3.563zm-7.29 0H3.963a8.75 8.75 0 0 0-1.145 3.984h4.221c.024-1.44.204-2.793.487-3.984z" fill="#fff"/><path d="M1.554 11.42a9.92 9.92 0 0 1 3.319-7.444l-1.02-1.207A11.546 11.546 0 0 0 0 11.42c0 3.187 1.271 6.076 3.327 8.144l1.098-1.126a9.936 9.936 0 0 1-2.871-7.018zM20.754 11.42a9.937 9.937 0 0 1-2.872 7.019l1.099 1.134a11.543 11.543 0 0 0 3.327-8.152c0-3.453-1.491-6.552-3.853-8.652l-1.02 1.207a9.932 9.932 0 0 1 3.32 7.445z" fill="#fff"/></symbol><symbol id="logo-with-text" viewBox="0 0 168 50"><path d="M19.232 43.9h2.7c1.5 0 2.1.6 1.9 2.1l-.2 1.3a2 2 0 0 1-2.3 2.2h-2.8l.7-5.6zm2.3 4.8c.7 0 1-.7 1.1-1.3l.2-1.3c.1-.9-.2-1.2-1-1.2h-1.6l-.5 3.8h1.8zM27.732 46.3h2.6l-.1.9h-2.6l-.2 1.5h2.8l-.1.9h-3.8l.7-5.7h3.8l-.1.9h-2.7l-.3 1.5zM33.632 43.9h2.7c1.5 0 2.1.6 1.9 2.1l-.2 1.3a2 2 0 0 1-2.3 2.2h-2.8l.7-5.6zm2.3 4.8c.7 0 1-.7 1.1-1.3l.2-1.3c.1-.9-.2-1.2-1-1.2h-1.6l-.5 3.8h1.8zM41.732 49.6h-1.1l.7-5.7h1.1l-.7 5.7zM48.532 45.8v-.3c.1-.7-.2-.7-1.1-.7-1.1 0-1.3.2-1.4 1.3l-.1 1.3c-.1 1.1 0 1.4 1.1 1.4.9 0 1.2 0 1.3-.8v-.3h1.1v.4c-.2 1.7-1.1 1.7-2.5 1.7-2 .1-2.2-.6-2.1-2.2l.2-1.3c.2-1.8 1-2.2 2.6-2.2 1.4 0 2.2 0 2.1 1.6v.3h-1.2v-.2zM53.132 48.5l-.5 1.1h-1.1l2.5-5.7h1.6l1.2 5.7h-1.1l-.2-1.1h-2.4zm1.6-3.8l-1.3 3h1.9l-.6-3zM61.132 49.6h-1.1l.6-4.7h-1.6l.1-.9h4.3l-.1.9h-1.6l-.6 4.7zM66.732 46.3h2.6l-.1.9h-2.6l-.2 1.5h2.8l-.1.9h-3.8l.7-5.7h3.8l-.1.9h-2.7l-.3 1.5zM72.632 43.9h2.7c1.5 0 2.1.6 1.9 2.1l-.2 1.3a2 2 0 0 1-2.3 2.2h-2.8l.7-5.6zm2.3 4.8c.7 0 1-.7 1.1-1.3l.2-1.3c.1-.9-.2-1.2-1-1.2h-1.6l-.5 3.8h1.8zM85.432 47.8v.3c-.1.7.2.7 1.2.7s1.1-.2 1.2-.8c.1-.8-.3-.7-1.2-.7-1.2-.1-2.1 0-2-1.7.2-1.6 1.2-1.6 2.5-1.6 1.1 0 2.1 0 1.9 1.5v.2h-1.1v-.2c.1-.6-.2-.6-.9-.6-1.1 0-1.2.1-1.3.7-.1.7.1.7 1.1.8 1.7.1 2.2.2 2 1.6-.2 1.6-.9 1.7-2.4 1.7-1.2 0-2.3 0-2.1-1.6v-.3h1.1zM92.532 49.6h-1.1l.7-5.7h1.1l-.7 5.7zM100.332 43.9h1.1l-.7 5.7h-1.8l-1.8-4.7-.5 4.7h-1.1l.7-5.7h1.8l1.8 4.7.5-4.7zM107.532 45.8v-.3c.1-.7-.2-.7-1.1-.7-1.1 0-1.3.2-1.4 1.3l-.1 1.3c-.1 1.1 0 1.4 1.1 1.4.9 0 1.2 0 1.3-.8v-.3h1.1v.4c-.2 1.7-1.1 1.7-2.5 1.7-2 .1-2.2-.6-2.1-2.2l.2-1.3c.2-1.8 1-2.2 2.6-2.2 1.4 0 2.2 0 2.1 1.6v.3h-1.2v-.2zM112.432 46.3h2.6l-.1.9h-2.6l-.2 1.5h2.8l-.1.9h-3.8l.7-5.7h3.8l-.1.9h-2.7l-.3 1.5zM125.532 49.6h-1l.6-4.8-1.6 1.5-.5-.7 2-1.7h1.3l-.8 5.7zM130.932 48c-.1.7.2.7 1.1.7.9 0 1.2 0 1.3-1l.1-.9c-.3.5-.7.6-1.5.6-1.2 0-1.8-.2-1.7-1.7.2-1.4.6-1.8 2.3-1.8 1.8 0 2.1.5 1.9 2.4l-.2 1.6c-.2 1.4-1 1.7-2.4 1.7-1.2 0-2.2 0-2-1.6h1.1zm.3-2.3c-.1.7 0 .8 1 .8s1.2-.1 1.3-.8c.1-.8-.2-.9-1.1-.9-1 0-1.1 0-1.2.9zM141.832 46.2l-.1 1c-.2 2-.9 2.4-2.6 2.4-1.7 0-2.3-.3-2-2.4l.1-1c.2-1.9.7-2.4 2.6-2.4 1.7.1 2.3.4 2 2.4zm-1.1 1.3l.2-1.6c.1-1.2-.1-1.2-1.1-1.2s-1.3.1-1.4 1.2l-.2 1.6c-.1 1.2.1 1.2 1.1 1.2s1.2 0 1.4-1.2zM148.532 49.6h-4.2l.1-1.1c.2-1.5.8-1.6 2-1.8 1.1-.2 1.4-.1 1.5-1.1.1-.7-.1-.9-.9-.9-1 0-1.1 0-1.3 1.2h-1c.2-1.4.4-2.1 2.4-2.1 1.3 0 2 .3 1.8 1.7-.2 1.5-.7 1.7-2.1 1.9-1 .2-1.3.1-1.4 1v.2h3.2l-.1 1z" fill="#fff"/><path d="M164.932.2L7.232 0a3.4 3.4 0 0 0-3.2 2.9l-4 31.2a2.5 2.5 0 0 0 2.4 2.9l157.7.2a3.402 3.402 0 0 0 3.2-2.9l4-31.2a2.397 2.397 0 0 0-2.4-2.9z" fill="#E2241C"/><path d="M60.932 9.8h-11.7a5.5 5.5 0 0 0-5.5 5.5v6.1a5.5 5.5 0 0 0 5.5 5.5h11.7a5.5 5.5 0 0 0 5.5-5.5v-6.1a5.5 5.5 0 0 0-5.5-5.5zm-.6 9.3a2.9 2.9 0 0 1-2.8 2.8h-4.9a2.9 2.9 0 0 1-2.8-2.8v-1.4a2.9 2.9 0 0 1 2.8-2.8h4.9a2.9 2.9 0 0 1 2.8 2.8v1.4zM40.732 15.1c-.6-2.8-3.3-5-7.9-5-2.8 0-6.4.3-7.6 2.3V10h-6.5v16.7h6.5v-8.6a2.8 2.8 0 0 1 .3-1.3 2.7 2.7 0 0 1 2.4-1.4h3.5a3.6 3.6 0 0 1 1 .2l.4.2a3 3 0 0 1 1.3 1.6l.1.2.1.5V27h6.5V16.3c-.01-.402-.043-.802-.1-1.2zM80.832 9.9a5.8 5.8 0 0 0-5.3 2.5V10h-6.5v16.7h6.5v-8.6a2.8 2.8 0 0 1 .3-1.3 2.7 2.7 0 0 1 2.4-1.4h1.2a3.6 3.6 0 0 1 1 .2l.4.2a3 3 0 0 1 1.3 1.6l.1.2.1.5v.1h6v-2.5c-.2-3.2-2.5-5.8-7.5-5.8zM142.332 10v1.7c-1.2-2-4.8-2.2-7.6-2.2-5 0-7.8 2.5-8 5.7v6.3c.3 3.1 3 5.6 8 5.6 2.8 0 6.4-.3 7.6-2.2v1.8h6.5V10h-6.5zm-.3 10.4a2.693 2.693 0 0 1-2.4 1.4h-3.5a3.607 3.607 0 0 1-1-.2l-.4-.2a3.004 3.004 0 0 1-1.3-1.6l-.1-.2-.1-.5v-1.6a.912.912 0 0 1 .1-.5l.1-.2a3.004 3.004 0 0 1 1.3-1.6.805.805 0 0 1 .4-.2c.32-.123.658-.19 1-.2h3.5a2.798 2.798 0 0 1 2.4 1.4c.219.36.323.779.3 1.2v1.7c.007.451-.096.897-.3 1.3zM123.932 15.8c-.2-3.2-3-5.7-8-5.7a6.702 6.702 0 0 0-5.9 3.4c-1.1-2-3.6-3.6-7.3-3.4a6.698 6.698 0 0 0-5.2 2.3V10h-6.5v16.7h6.5v-8.6a2.8 2.8 0 0 1 .3-1.3 2.7 2.7 0 0 1 2.4-1.4h1.2c.342.019.678.086 1 .2l.401.2c.608.363 1.069.93 1.3 1.6l.099.2.101.5V27h6.5v-9.2l.3-.9a2.693 2.693 0 0 1 2.399-1.4h1.2c.342.019.678.086 1 .2l.401.2c.608.363 1.069.93 1.299 1.6l.1.2.101.5v8.9h6.5V16.4a4.227 4.227 0 0 0-.201-.6zM151.132 11.1c.11-.324.32-.604.6-.8.248-.224.516-.425.8-.6a3.607 3.607 0 0 1 1-.2c.343.01.681.077 1 .2.324.11.605.32.8.6.224.248.425.516.6.8.114.322.181.659.2 1a4.247 4.247 0 0 1-.2 1.1 1.594 1.594 0 0 1-.6.8 5.416 5.416 0 0 1-.8.6 3.6 3.6 0 0 1-1 .2 3.005 3.005 0 0 1-1-.2 1.601 1.601 0 0 1-.8-.6 5.619 5.619 0 0 1-.6-.8 3.617 3.617 0 0 1-.2-1.1c.019-.341.087-.678.2-1zm.5 2c.255.523.677.946 1.2 1.2a2.104 2.104 0 0 0 1.8 0 1.79 1.79 0 0 0 .7-.5 4.14 4.14 0 0 0 .5-.7 2.092 2.092 0 0 0 0-1.8 2.597 2.597 0 0 0-1.2-1.2 2.395 2.395 0 0 0-.9-.2c-.308.02-.612.087-.9.2-.27.108-.51.28-.7.5-.19.216-.357.45-.5.7a2.106 2.106 0 0 0 0 1.8zm2.1-2.5c.28-.004.556.065.8.2a.79.79 0 0 1 .3.7.785.785 0 0 1-.2.6.999.999 0 0 1-.6.2l.9 1.4h-.5l-.8-1.3h-.5v1.3h-.5v-3.1h1.1zm-.2 1.4h.3a.402.402 0 0 0 .3-.1l.2-.2.1-.3-.1-.2-.2-.1-.2-.1h-.8v1h.4z" fill="#fff"/></symbol><symbol id="logo" viewBox="0 0 107 24"><path d="M103.911 0H4.541C3.53 0 2.624.78 2.523 1.818L.001 22.026C-.15 23.065.556 24 1.565 24h99.37c.958 0 1.866-.78 2.018-1.818l2.471-20.26C105.576.935 104.869 0 103.911 0z" fill="#E2241C"/><path d="M37.932 12.364c0 .987-.807 1.818-1.765 1.818H33.09c-.959 0-1.766-.831-1.766-1.818v-.935c0-.988.807-1.819 1.766-1.819h3.077c.958 0 1.765.832 1.765 1.819v.935zm.404-6.026H30.92c-1.917 0-3.48 1.61-3.48 3.584v3.948c0 1.974 1.563 3.585 3.48 3.585h7.415c1.916 0 3.48-1.61 3.48-3.585V9.922c0-1.974-1.564-3.584-3.48-3.584zM25.574 9.766c-.353-1.87-2.068-3.22-4.943-3.22-1.766 0-4.036.155-4.792 1.454V6.494h-4.086V17.35h4.086V11.792c0-.312.1-.623.201-.883.303-.571.858-.935 1.514-.935h2.169c.201 0 .403.052.605.104l.303.156c.353.208.655.623.807 1.039 0 .052 0 .104.05.104 0 .103.05.207.05.311v5.766h4.086v-6.909c0-.363-.05-.727-.05-.779zM50.896 6.39c-1.514 0-2.421.363-3.33 1.61V6.494h-4.085V17.35h4.086V11.792c0-.312.1-.623.201-.883.303-.571.858-.935 1.514-.935h.706c.202 0 .403.052.605.104l.303.156c.353.208.655.623.807 1.039 0 .052 0 .104.05.104 0 .103.05.207.05.311v.052h3.784v-1.61c-.101-2.078-1.564-3.74-4.691-3.74zM89.433 13.195c-.302.571-.857.935-1.513.935h-2.169c-.202 0-.404-.052-.605-.104l-.303-.156c-.353-.208-.656-.623-.807-1.039 0-.052 0-.104-.05-.104 0-.104-.05-.207-.05-.311v-1.04c0-.103 0-.207.05-.311 0-.052 0-.104.05-.104.151-.415.403-.831.807-1.039l.303-.156c.201-.052.403-.104.605-.104h2.169c.656 0 1.261.364 1.513.935.101.208.202.468.202.728v1.09c0 .26-.05.52-.202.78zm.252-6.701v1.142c-.756-1.298-3.026-1.454-4.741-1.454-3.127 0-4.893 1.662-5.044 3.74v4.052c.151 2.026 1.917 3.636 4.993 3.636 1.766 0 4.036-.155 4.742-1.454v1.195h4.086V6.494h-4.035zM78.084 10.234c-.151-2.078-1.867-3.689-5.044-3.689-2.573 0-3.683 2.078-3.733 2.182-.706-1.298-2.27-2.337-4.59-2.233-1.614.051-2.472.57-3.33 1.454V6.442h-4.085v10.857h4.086V11.792c0-.312.1-.623.201-.883.303-.571.858-.935 1.514-.935h.706c.202 0 .403.052.605.104l.303.156c.353.208.656.623.807 1.039 0 .052 0 .104.05.104 0 .103.05.207.05.311v5.766h4.087V11.48c.05-.207.1-.415.201-.57.303-.572.858-.936 1.513-.936h.757c.202 0 .404.052.605.104l.303.156c.353.208.656.623.807 1.039 0 .052 0 .104.05.104 0 .103.051.207.051.311v5.766h4.086v-6.909-.052-.26zM96.697 7.74h.202c.05 0 .1 0 .15-.052.051 0 .102-.052.102-.104.05-.052.05-.103.05-.207 0-.052 0-.104-.05-.156l-.101-.104c-.05 0-.101-.052-.151-.052h-.555v.623h.353v.052zm.151-.883c.252 0 .404.052.505.156a.6.6 0 0 1 .15.416.6.6 0 0 1-.15.415A.452.452 0 0 1 97 8l.554.883h-.302L96.697 8h-.303v.883h-.303V6.857h.757zm-1.362 1.559c.05.155.151.311.303.467.1.156.252.26.454.312.151.052.353.104.555.104.201 0 .353-.052.555-.104.15-.052.302-.156.454-.312.15-.156.201-.312.302-.467.05-.156.101-.364.101-.572 0-.208-.05-.415-.1-.571a1.23 1.23 0 0 0-.303-.468 1.76 1.76 0 0 0-.454-.311 1.767 1.767 0 0 0-.555-.104c-.202 0-.353.052-.555.104a1.189 1.189 0 0 0-.454.311c-.101.156-.202.26-.303.468-.05.156-.1.363-.1.571 0 .208 0 .416.1.572zm-.302-1.247c.1-.208.201-.364.353-.52.151-.155.353-.26.554-.363.202-.104.404-.156.656-.156s.454.052.656.156c.202.104.403.208.555.363.151.156.252.312.353.52.1.208.151.415.151.675 0 .26-.05.468-.151.675-.1.208-.202.416-.353.52-.151.156-.353.26-.555.364-.202.104-.404.104-.656.104s-.454-.052-.656-.104c-.201-.104-.403-.208-.554-.364a1.864 1.864 0 0 1-.353-.52 1.473 1.473 0 0 1-.152-.675c.05-.208.101-.467.152-.675z" fill="#fff"/></symbol><symbol id="plus" viewBox="0 0 11 12"><path d="M.57 6.888H4.7v4.736h1.856V6.888h4.096V5.064H6.555V.328H4.699v4.736H.57v1.824z" fill="#fff"/></symbol><symbol id="remove-red" viewBox="0 0 16 16"><g fill="none" stroke="#9b0c00" stroke-linecap="square" stroke-miterlimit="10"><path d="M12 4l-8 8M12 12L4 4"/></g></symbol><symbol id="remove-white" viewBox="0 0 16 16"><g fill="none" stroke="#fff" stroke-linecap="square" stroke-miterlimit="10"><path d="M12 4l-8 8M12 12L4 4"/></g></symbol><symbol id="royal-court-text" viewBox="0 0 37 13"><path d="M.136 3h.472V1.968h1.14l.38-.38V.62l-.38-.38H.136V3zm.472-1.384V.592h.88l.164.164v.692l-.164.168h-.88zM3.242 3h1.192l.396-.396V.24h-.472v2.2l-.188.188h-.66l-.188-.188V.24H2.85v2.364L3.242 3zm2.48 0h.472V1.864h.748L7.29 3h.484l-.38-1.204.336-.34V.612L7.362.24h-1.64V3zm.472-1.488V.584h.9l.164.168v.584l-.176.176h-.888zM9.045 3h.692l.708-2.76h-.436l-.6 2.44L8.801.24H8.33L9.045 3zm2.074 0h1.708v-.372h-1.236v-.836h1.132v-.368h-1.132V.612h1.228V.24h-1.7V3zm3.12 0h.472v-.872L15.57.24h-.46l-.616 1.416L13.887.24h-.508l.86 1.888V3zm2.29 0h1.265l.392-.396V.636L17.794.24h-1.265l-.395.396v1.968l.395.396zm.265-.364l-.189-.188V.792l.189-.188h.735l.184.188v1.656l-.184.188h-.735zM19.056 3h.472V1.864h.748L20.624 3h.484l-.38-1.204.336-.34V.612L20.696.24h-1.64V3zm.472-1.488V.584h.9l.164.168v.584l-.176.176h-.888zM23.678 3h.476V.624h.764V.24h-2.004v.384h.764V3zm2.28 0h1.264l.392-.396V.636L27.222.24h-1.264l-.396.396v1.968l.396.396zm.264-.364l-.188-.188V.792l.188-.188h.736l.184.188v1.656l-.184.188h-.736zm4.04.364h.477V.624h.764V.24h-2.004v.384h.764V3zm1.944 0h.472V1.844h1.044V3h.472V.24h-.472v1.188h-1.044V.24h-.471V3zm2.899 0h1.708v-.372h-1.236v-.836h1.132v-.368h-1.132V.612h1.228V.24h-1.7V3zM2.999 8h.472V6.864h.748L4.567 8h.484l-.38-1.204.336-.34v-.844L4.64 5.24H3V8zm.472-1.488v-.928h.9l.164.168v.584l-.176.176h-.888zM6.2 8h1.264l.392-.396V5.636l-.392-.396H6.199l-.396.396v1.968L6.199 8zm.264-.364l-.188-.188V5.792l.188-.188h.736l.184.188v1.656l-.184.188h-.736zM9.275 8h.472v-.872l.86-1.888h-.46L9.53 6.656 8.923 5.24h-.508l.86 1.888V8zm1.51 0h.453l.188-.704h.972L12.59 8h.476l-.8-2.76h-.68l-.8 2.76zm1.129-2.492l.384 1.416h-.768l.384-1.416zM13.732 8h1.572v-.384h-1.1V5.24h-.472V8zm3.887 0h1.22l.38-.38v-.508h-.468v.356l-.172.172h-.696l-.188-.188v-1.66l.188-.188h.696l.172.172v.34h.468V5.62l-.38-.38h-1.22l-.396.396v1.968l.396.396zm2.785 0h1.264l.392-.396V5.636l-.392-.396h-1.264l-.396.396v1.968l.396.396zm.264-.364l-.188-.188V5.792l.188-.188h.736l.184.188v1.656l-.184.188h-.736zM23.302 8h1.192l.396-.396V5.24h-.472v2.2l-.188.188h-.66l-.188-.188v-2.2h-.472v2.364l.392.396zm2.48 0h.472V6.864h.748L27.35 8h.484l-.38-1.204.336-.34v-.844l-.368-.372h-1.64V8zm.472-1.488v-.928h.9l.164.168v.584l-.176.176h-.888zM29.18 8h.476V5.624h.764V5.24h-2.004v.384h.764V8zm3.522 0h1.264l.392-.396V5.636l-.392-.396h-1.264l-.396.396v1.968l.396.396zm.264-.364l-.188-.188V5.792l.188-.188h.736l.184.188v1.656l-.184.188h-.736zM35.23 8h.472V6.832h1.096v-.368h-1.096v-.852h1.192V5.24H35.23V8zm-14.555 5h1.264l.368-.372v-.896l-.316-.316h-1.076l-.112-.116v-.548l.152-.152h.724l.148.144v.272h.472v-.42l-.356-.356h-1.244l-.368.372v.864l.316.32h1.072l.116.116v.576l-.152.152h-.748l-.144-.144v-.276h-.472v.424l.356.356zm2.738 0h.62l.488-2.344.484 2.344h.6l.512-2.76h-.404l-.388 2.336-.484-2.336h-.616l-.484 2.336-.388-2.336h-.456l.516 2.76zm3.388 0h1.708v-.372h-1.236v-.836h1.132v-.368h-1.132v-.812H28.5v-.372h-1.7V13zm2.511 0h1.608l.396-.396v-1.968l-.396-.396h-1.608V13zm.472-.364v-2.032h.872l.188.188v1.656l-.188.188h-.872zm2.403.364h1.708v-.372h-1.236v-.836h1.132v-.368h-1.132v-.812h1.228v-.372h-1.7V13zm2.507 0h.42v-2.064L36.194 13h.512v-2.76h-.42v2.048l-1.084-2.048h-.508V13z" fill="#fff"/></symbol><symbol id="royal-court" viewBox="0 0 26 24"><path d="M20.99 14.367c0 .087-.034.17-.096.231a.334.334 0 0 1-.469 0 .324.324 0 0 1 0-.462.334.334 0 0 1 .468 0 .324.324 0 0 1 .098.231zM10.063 20.898l.497.163-.083.408-.58-.163-.165.408-.331-.081.166-.49-.497-.163.083-.327.496.082.166-.327-.331-.082.165-.408.249.082.165-.327.331.164-.082.326.248.082-.083.408-.331-.163-.083.408zM16.272 21.143l.166.49-.414.081-.166-.408-.497.163-.083-.408.497-.163-.165-.408-.332.163-.082-.408.33-.082-.165-.326.331-.164.166.327.331-.082.083.408-.331.082.165.327.497-.164.166.409-.497.163z" fill="#fff"/><path d="M24.467 15.755c.249-.082.414-.326.414-.735l-2.318-6.367c.22-.053.422-.165.583-.323a1.22 1.22 0 0 0 .328-.575c.166-.653-.331-1.388-1.49-2.286H21.9c-.248 0-2.07-.245-2.649.572a1.132 1.132 0 0 0-.083 1.143c-.52.13-1.069.102-1.573-.082a2.473 2.473 0 0 1-.74-.658c-.2-.267-.342-.57-.419-.893v-.245l.497-2.286h-.083a5.67 5.67 0 0 0-3.56-1.469V.898h.498V.49h-.497V0h-.414v.49h-.58v.408h.497v.571h-.165a5.752 5.752 0 0 0-3.477 1.47v.163l.414 2.204h-.083v.245a2.11 2.11 0 0 1-.994 1.306c-.54.26-1.158.318-1.738.163a1.37 1.37 0 0 0-.166-1.224c-.414-.49-1.324-.653-2.814-.327H3.44c-.083.082-1.242 1.225-.994 2.204.044.2.145.384.292.53.147.144.333.244.536.287l-2.4 6.53a.973.973 0 0 0 .496.654L.71 17.633h.083a8.99 8.99 0 0 0 4.553 3.836v.653c.082.164.662.98 3.56.735v.49h.082c.083.082.91.653 3.146.653h.828c.993 0 3.394-.163 3.89-.653h.083v-.49c.828 0 2.98.082 3.477-.571v-.817c.828-.326 3.642-1.632 4.636-3.836l-.58-1.878zM16.19 3.265l-.331 1.633h-.745V3.02c-.083 0-.166-.326-.414-.653a7.22 7.22 0 0 1 1.49.898zm-2.897-1.224c.524.215.94.626 1.159 1.143v1.714h-1.16V2.041zm-1.904 1.224c.255-.54.694-.973 1.242-1.224v2.857h-1.242V3.265zm-.083-.98a4.651 4.651 0 0 0-.497.735v1.878H9.98l-.248-1.633a4.645 4.645 0 0 1 1.573-.98zm-9.52 12l1.738-.897-1.076-.898.414-.816 1.325-.654.58-2.938.579-.327v.327c.97.573 2.108.804 3.228.653 2.318-.572 4.388-2.857 4.388-2.857.993 1.795 4.139 2.857 4.139 2.857a5.78 5.78 0 0 0 3.311-.653v-.327l.58.245.579 3.02 1.242.654.414.897-.994.735 1.739.898.248.816c0 .245-.166.245-.166.327h-.413l.579 1.714-.993-.735h-.083a.411.411 0 0 1-.248-.408l-.414-1.877h-.083c-.248-.082-.331-.408-.331-.408l-.331-2.041h-.083c-.414-.082-.497-.327-.497-.408l-.414-2.204h-.165c-4.47 1.142-7.534-2.368-7.534-2.368l-.165-.163-.166.163C9.98 10.122 5.18 8.98 5.18 8.98h-.248l-.249 2.204c-.082.245-.413.326-.413.326h-.083l-.414 2.041c0 .082-.249.327-.414.408h-.083l-.414 2.204-1.324.898.58-1.632h-.415a.415.415 0 0 1-.248-.245l.331-.898zm11.093 9.389h-.662l.58-.572.661.653h-.58v-.081zm7.12-2.531h-.166v.98c-.332.326-1.904.408-3.146.244h-.331v.898a8.64 8.64 0 0 1-2.65.327h-.082l-.331-.816h-.91l-.332.816h-.083a7.043 7.043 0 0 1-2.483-.408v-.817h-.331c-2.401.327-3.063-.163-3.229-.245v-.98h-.248a10.057 10.057 0 0 1-2.318-1.305 7.797 7.797 0 0 1-1.987-2.123l1.821-1.306.414-2.122c.25-.126.453-.326.58-.572l.33-1.877c.166-.082.498-.245.498-.572l.248-1.796c.993.164 5.05.735 7.616-2.367a8.83 8.83 0 0 0 5.877 2.612v.245a1.09 1.09 0 0 0-.993.49h-.083l.166.653h-.083s-2.235 2.367-.248 3.592l-.828.571v-3.51h-1.16l.415-1.877h-.083a4.834 4.834 0 0 0-2.815-1.225v-.245h.414V8h-.414v-.49h-.33V8h-.415v.327h.414v.244h-.082c-1.03.072-2 .507-2.732 1.225v.163l.33 1.796h-1.24v3.592l-.829-.572c1.904-1.142-.248-3.51-.248-3.51h-.083l.166-.734c-.083 0-.414-.49-.994-.49h-.082v-.327h-.083v.245c-.371.01-.726.155-.994.408H5.76l.165.735-.414.163c.062.474.298.91.662 1.225.663-.245.746.326.746.326L5.014 16H4.93c-.414.163-.828.326-.91.245h-.084v.081c0-.163.083-.49 1.242-1.142 1.16-.653.828-.572.828-1.225a.809.809 0 0 0-.331-.571.324.324 0 0 0-.097-.231.333.333 0 0 0-.234-.096.418.418 0 0 0-.267.09.407.407 0 0 0-.147.237c0 .108.043.212.121.288.078.077.183.12.293.12h.165a.329.329 0 0 1 .166.326c0 .409-.497.817-.662.98-.166.163-1.325.816-1.325 1.224 0 .409.083.327.166.327.082 0 .165.082.248.082h.331c-1.573 1.632-1.159 2.775-1.076 3.02h1.904l-.166-.408c-1.573-.163-.827-1.225-.827-1.225a1.508 1.508 0 0 0 1.24-.177 1.48 1.48 0 0 0 .663-1.047c1.16.163.663 1.061.663 1.061a1.14 1.14 0 0 0-.325.959 1.133 1.133 0 0 0 .573.837h1.904l-.414-.49c-1.407 0-1.159-.816-1.159-.816 1.904-1.47-1.324-2.286-1.324-2.286l1.407-.816c.331-.082 1.076.327 1.49.653v1.96c0 1.305 1.159 1.55 2.152 1.713h.663l.828.245.165.49.248-.49c0-.081.414-.163.828-.244h.662c.994-.164 2.153-.409 2.153-1.715V16c.414-.245 1.159-.653 1.407-.571l1.49.816s-3.311.816-1.324 2.286c0 0 .248.816-1.16.734l-.496.572h1.904a1.233 1.233 0 0 0 .573-.825 1.208 1.208 0 0 0-.242-.971s-.58-.898.662-1.061a1.374 1.374 0 0 0 .611 1.045 1.418 1.418 0 0 0 1.21.18s.746 1.06-.827 1.224l-.166.408h1.904s.663-1.225-1.076-3.102h.331a.42.42 0 0 0 .331-.164c.083 0 .166-.081.166-.326s-.414-.816-1.325-1.388c-.91-.571-.745-.571-.745-.98a.405.405 0 0 1 .249-.326h.165c.11 0 .215-.043.293-.12a.405.405 0 0 0 .121-.288.408.408 0 0 0-.147-.237.418.418 0 0 0-.267-.09.333.333 0 0 0-.234.096.324.324 0 0 0-.097.23 1.057 1.057 0 0 0-.331.572c0 .653.828 1.143.828 1.225 0 .081 1.242 1.061 1.242 1.143a.244.244 0 0 1-.083.163c-.083.081-.58-.082-.994-.245h-.082s-1.987-2.122-1.822-3.184c.166-1.06.083-.571.745-.326a1.719 1.719 0 0 0 .663-1.225l-.414-.163.165-.735a1.75 1.75 0 0 0-.91-.408h-.166v-.326l1.656-.164.248 1.715a.914.914 0 0 0 .662.653l.249 1.796a1.053 1.053 0 0 0 .497.653l.413 1.632a.646.646 0 0 0 .104.463.662.662 0 0 0 .393.272l1.407.98c-1.076 2.204-4.387 3.428-4.47 3.51zm-1.243-10.939v.898h-.413v-.49a.652.652 0 0 1 .413-.408zm-.413.082l-.166.245v.571h-.166v-.49c-.082-.081.083-.245.331-.326zm-5.712 1.877c0 .245.082.898.082 2.123h-1.076v-.49h-.248v.653h-.331v-.653h-.249v.653h-.248v-.653h-.248v1.061h1.241v.735H9.401v-3.429h3.229zm-2.236-2.04a4.639 4.639 0 0 1 1.077-.735c-.166.245-.249.49-.332.49v1.469h-.496l-.249-1.225zm1.325 1.224V10.04c.215-.376.53-.686.91-.898v2.204h-.91zm-.166 4.49v.571c0 .327.166.408.414.49.249.082-.083.653-.083.653l.083.327-.496-.082-.332-.735c0-.163.166-1.061.166-1.061h-.828v.49h.414a.645.645 0 0 1-.083.49h-.248l-.745-.654-.166.164.745.653c-.22.15-.478.235-.745.245v.245c.445-.074.869-.241 1.242-.49l.331.816c-.993-.163-.91.408-.91.408l.33.245h-.579v.164h.662c.58-.245-.082-.572-.082-.572v-.163h.58c.182.189.41.329.661.408v.326h-.413v.245h.745c.33-.49 0-.734 0-.734l-.58-.245c.58.163.58-.163.58-.163a.888.888 0 0 0-.166-.654.16.16 0 0 1 .005-.173.164.164 0 0 1 .16-.071v-.164c0 .082 0 .082.083.082h.497v.326c0 1.225-.083 1.96-.083 2.205h-.745l-.662-.164c-1.325-.163-1.821-.408-1.821-1.306v-2.04l2.07-.082zm1.16.898V15.02h-.166v.735h-.166v-.98h.91v.98h-.165v-.735h-.165v1.715h-.249zm.248.326h.413v.572h1.077v-.98h-.166v.572h-.248v-.49a.485.485 0 0 0 .083-.327v-.571h2.152v2.122c0 .898-.497 1.143-1.821 1.306l-.662.164h-.746c0-.245-.082-.98-.082-2.204v-.164zm.662.163v-.326h.248v.408l-.248-.082zm.497-1.632v-.408h.33c.497-.327-.082-.653-.082-.653h.662l.662.326v.408h-.414v.164h.663c.414-.49.083-.735.083-.735l-.58-.245c.58.163.58-.082.58-.082a.888.888 0 0 0-.166-.653.162.162 0 0 1 .075-.232.168.168 0 0 1 .09-.013v-.408c-.662.082-.33.653-.33.653l.165.408-.58-.163-.248-.734.166-1.062h-.828v.49h.414c.083.163-.083.408-.083.408h-.331l-.745-.571v.163l.745.572a2.083 2.083 0 0 1-.745.326v.327c.445-.074.868-.241 1.242-.49l.33.816c-.662-.082-.827.163-.91.327v-.245h-1.324c0-1.225.082-1.878.082-2.123h3.229v3.347l-2.152.082zm0-.653v-.327l.33.245-.33.082zm-.994-3.592V9.143c.384.208.7.52.91.898v1.306h-.91zm1.408-1.47l-.166-.408.91.653-.248 1.225h-.414V9.959l-.082-.081zm-7.037.654l-.166-.245.414.326v.49H7.58v-.571h-.083zm-.166.081v.49h-.33v-.898c.152.097.268.24.33.408zm-.579-.408v.898h-.331v-.49c.083-.081.165-.326.331-.408zm-.497 1.061l.166.245c0 .082-.083.164-.249.164a.167.167 0 0 1-.117-.048.162.162 0 0 1-.048-.116c0-.065.026-.127.073-.173a.25.25 0 0 1 .175-.072zm-.248-.653a.41.41 0 0 1 .331-.245.244.244 0 0 1-.083.164v.571H6.09l-.083-.49zm13.41-.081v-.164l.415.245-.166.49H19.5v-.571h-.082zm0 .734l.166.245-.165.164a.167.167 0 0 1-.117-.048.162.162 0 0 1-.049-.116c0-.081.083-.245.166-.245zm-.165-.163h-.331v-.898c.166.082.248.327.331.408v.49z" fill="#fff"/><path d="M16.024 16.653v.816h-1.077v-.816h.249v.571h.248v-.571h.166v.571h.248v-.571h.166zM10.726 12.653v.898H9.649v-.898h.166v.572h.248v-.572h.249v.572h.248v-.572h.165zM12.298 12.653v.898h-1.076v-.898h.166v.572h.248v-.572h.166v.572h.33v-.572h.166zM15.361 17.714v1.062h-1.324v-1.062h.248v.735h.331v-.735h.249v.735h.248v-.735h.248zM11.967 22.286l-.828.326h-.248c0-.043.018-.084.049-.115a.167.167 0 0 1 .117-.048l.58-.653-.58-.571a.167.167 0 0 1-.117-.048.162.162 0 0 1-.049-.116c0-.081.083-.081.166-.081.022 0 .043.008.058.024a.081.081 0 0 1 .024.057l.828.327h-.083c0 .163-.082.245-.082.408.02.138.047.274.082.408a.083.083 0 0 0 .083.082zM13.706 20.082h-.083l-.331.816h-.91l-.332-.816h-.083c0-.082 0-.164.083-.164.044 0 .086.018.117.048.031.03.049.072.049.116l.579.571.662-.571a.166.166 0 0 1 .166-.163c.048.041.077.1.083.163zM14.699 22.612a.081.081 0 0 1-.024.058.083.083 0 0 1-.117 0 .081.081 0 0 1-.024-.058l-.828-.326a.649.649 0 0 0 .165-.408c0-.164-.083-.245-.083-.409h-.082l.828-.326c0-.082 0-.082.082-.082.083 0 .083 0 .083.082 0 .081 0 .163-.083.163l-.662.572.662.653c.083-.082.083 0 .083.081zM13.457 21.796a.485.485 0 0 1-.082.326l-.249.245h-.662l-.166-.245a.485.485 0 0 1-.082-.326v-.245h.082c0-.043.018-.085.049-.115a.167.167 0 0 1 .117-.048h.745l.166.163a.327.327 0 0 1 .082.245z" fill="#fff"/></symbol><symbol id="ruag" viewBox="0 0 79 24"><path d="M34.96 18.49v1.845H33.09V18.49h1.868zm-6.331.953c1.118-.012 1.237-1.286 1.237-2.083 0-.083.024-1.047-.333-1.594-.297-.464-.702-.488-.916-.488-.809 0-1.237.678-1.237 2.082 0 .797.119 2.082 1.249 2.082zm2.784-7.544v7.46h.928v.976H30.01v-.904l-.143.25a1.92 1.92 0 0 1-.785.642 2.232 2.232 0 0 1-2.463-.619c-.321-.357-.809-1.13-.809-2.344 0-.321.024-1.261.607-2.094.642-.904 1.499-1.011 1.915-1.011.215 0 .667.012 1.13.369.203.166.334.32.382.392.06.084.083.12.166.274v-2.415h-.916v-.976h2.32zm-8.031 5.295c-.44.107-.607.166-.833.262-.762.32-.988.713-.988 1.13 0 .464.31.726.738.726.119 0 .369-.024.63-.19.5-.322.453-.822.453-1.333v-.595zm-3.142-.845l.096-1.166c.154-.167.309-.357.725-.571.298-.155.75-.357 1.512-.357.975 0 1.487.273 1.808.559.179.166.333.357.405.583.095.286.107.75.107 1.44v2.522h.868v.976h-2.284v-.81c-.12.167-.202.286-.369.441-.202.19-.619.5-1.333.5-.13 0-.428-.012-.761-.143-.904-.357-1.023-1.237-1.023-1.559 0-.357.142-1.059.88-1.582.738-.524 1.654-.678 2.499-.845v-.155c0-.012.012-.333-.048-.511-.119-.37-.56-.405-.868-.405-.143 0-.845-.012-1.047.571-.06.143-.06.345-.072.512H20.24zm-2.498.333c.012-.428 0-.928-.405-1.214-.262-.19-.523-.19-.642-.19-.786 0-1.024.654-1.083.904-.024.107-.06.274-.072.512l2.202-.012zm-2.214.952c-.023.904.167 1.808 1.286 1.808.166 0 .773-.023 1.035-.57a1.58 1.58 0 0 0 .119-.44h1.428c0 .178-.012.213-.024.309-.06.273-.226.594-.393.809-.31.38-.988.916-2.19.916-.225 0-.725-.012-1.272-.262-.643-.297-1.678-1.083-1.678-2.844 0-.214.012-.642.166-1.154.536-1.737 2-1.951 2.642-1.951.286 0 1.047.035 1.725.535.453.345 1.071 1.119 1.071 2.499 0 .202 0 .214-.024.345h-3.89zM9.365 15.17c.083-.12.107-.167.202-.274a1.866 1.866 0 0 1 1.452-.642c.56 0 .94.19 1.13.31.88.546.786 1.463.786 2.343v2.451h.916v.976h-3.225v-.976h.75v-2.748c0-.381-.036-.75-.417-.952a1.1 1.1 0 0 0-.511-.107c-.12 0-.405.012-.667.226-.404.321-.416.797-.416 1.273v2.308h.75v.976H6.89v-.976h.928v-6.485H6.89V11.9h2.475v3.272zm-5.164 2.023c-.44.107-.607.166-.833.262-.761.32-.988.713-.988 1.13 0 .464.31.726.738.726.12 0 .37-.024.63-.19.5-.322.453-.822.453-1.333v-.595zm-3.141-.845l.095-1.166c.155-.167.31-.357.726-.571.297-.155.75-.357 1.51-.357.977 0 1.488.273 1.81.559.178.166.333.357.404.583.095.286.107.75.107 1.44v2.522h.869v.976H4.296v-.81c-.119.167-.202.286-.369.441-.202.19-.618.5-1.332.5-.131 0-.429-.012-.762-.143C.93 19.966.81 19.086.81 18.764c0-.357.143-1.059.88-1.582.738-.524 1.654-.678 2.5-.845v-.155c0-.012.011-.333-.049-.511-.119-.37-.559-.405-.868-.405-.143 0-.845-.012-1.047.571-.06.143-.06.345-.072.512H1.06zM43.835 3.463c.047-.084.107-.167.154-.25.155-.226.56-.774 1.357-.774.428 0 .714.131 1.083.31V4.39h-.917c-.023-.107-.059-.203-.095-.31-.047-.119-.154-.488-.583-.488-.428 0-.714.417-.809.786-.071.297-.083.868-.095 1.618v1.464H45v.975h-3.533v-.975h.916V3.463h-.916v-.976h2.368v.976zm-4.367 1.32c.012-.428 0-.928-.405-1.213-.261-.19-.523-.19-.642-.19-.785 0-1.023.654-1.083.904a2.88 2.88 0 0 0-.071.511l2.2-.012zm-2.213.952c-.024.905.166 1.809 1.285 1.809.166 0 .773-.024 1.035-.571.048-.107.083-.214.119-.44h1.428c0 .178-.012.214-.024.309-.06.274-.226.595-.393.809-.309.38-.987.916-2.189.916-.226 0-.726-.012-1.273-.262-.643-.297-1.678-1.082-1.678-2.843 0-.215.012-.643.167-1.155.535-1.737 1.999-1.951 2.641-1.951.286 0 1.047.036 1.726.535.452.346 1.07 1.119 1.07 2.5 0 .201 0 .213-.023.344h-3.891zm-6.14-2.463c.083-.119.107-.166.202-.273a1.866 1.866 0 0 1 1.452-.643c.56 0 .94.19 1.13.31.88.547.786 1.463.786 2.343v2.452h.916v.975h-3.225v-.975h.75V4.712c0-.38-.036-.75-.416-.952a1.1 1.1 0 0 0-.512-.107c-.12 0-.405.012-.666.226-.405.321-.417.797-.417 1.273v2.309h.75v.975H28.64v-.975h.928V.976h-.928V0h2.475v3.272zM28.2 2.487v1.047h-1.404v2.463c0 .69-.036 1.083.285 1.297a.68.68 0 0 0 .381.107c.25 0 .512-.095.738-.202l-.012 1.19c-.19.06-.595.178-1.142.178-.405 0-.833-.083-1.166-.333-.69-.5-.631-1.32-.631-2.047V3.534h-.857V2.487h.857V.726h1.547v1.76H28.2zm-5.7 2.296c.012-.428 0-.928-.404-1.213-.262-.19-.524-.19-.643-.19-.785 0-1.023.654-1.082.904a2.88 2.88 0 0 0-.072.511l2.201-.012zm-2.213.952c-.023.905.167 1.809 1.285 1.809.167 0 .774-.024 1.036-.571.047-.107.083-.214.119-.44h1.427c0 .178-.012.214-.023.309-.06.274-.227.595-.393.809-.31.38-.988.916-2.19.916-.226 0-.725-.012-1.273-.262-.642-.297-1.677-1.082-1.677-2.843 0-.215.012-.643.166-1.155.536-1.737 2-1.951 2.642-1.951.285 0 1.047.036 1.725.535.452.346 1.07 1.119 1.07 2.5 0 .201 0 .213-.023.344h-3.89zm-5.7-.761c.25.428.739.452.881.452.095 0 .262 0 .464-.095.476-.226.524-.69.524-.857 0-.583-.405-.94-.988-.94-.083 0-.238 0-.44.083a.887.887 0 0 0-.571.857c0 .178.036.345.13.5zM14.1 9.495c.297.405.94.464 1.38.464.107 0 .666.012 1.083-.19.428-.19.512-.488.512-.69-.012-.12-.024-.321-.274-.512-.416-.321-1.309-.31-1.32-.31-.096 0-.667 0-1.072.191-.392.19-.464.524-.452.69 0 .072.036.214.143.357zm4.355-6.14H17.24c.214.179.619.548.607 1.262 0 .357-.083.69-.285.975-.298.429-.81.655-1.845.81-.31.047-.535.071-.654.13-.048.024-.203.12-.203.286 0 .238.262.298.631.345l.38.036c.858.107 1.345.19 1.702.357.56.262.833.726.833 1.344 0 .298-.047 1.024-.738 1.535-.404.298-1.082.56-2.189.56-.13 0-1.237 0-1.94-.381a1.739 1.739 0 0 1-.547-.476 1.445 1.445 0 0 1-.32-.952c0-1.047.999-1.297 1.248-1.368-.118-.048-.642-.203-.642-.714a.75.75 0 0 1 .13-.417c.227-.285.62-.369.94-.452a2.547 2.547 0 0 1-.546-.31 1.854 1.854 0 0 1-.726-1.463 1.88 1.88 0 0 1 1.047-1.678c.583-.297 1.07-.297 2.26-.297h2.07v.869zM8.448 6.688c.048.143.071.179.107.25.214.369.56.571.964.571.226 0 .773-.095 1.023-.702.203-.476.19-1.356.19-1.368 0-.548-.07-1-.13-1.19-.048-.19-.131-.31-.167-.369a1.074 1.074 0 0 0-.928-.5c-.63 0-.904.464-1 .655-.118.262-.202.737-.202 1.416 0 .345.036.904.143 1.237zm-.916-3.629c.75-.642 1.666-.702 1.987-.702.345 0 .714.06 1.035.179a2.672 2.672 0 0 1 1.773 1.868c.06.226.13.535.13 1.059 0 .345 0 1.26-.642 2.07-.761.94-1.927 1.035-2.308 1.035-.369 0-1.547-.095-2.308-1.07-.298-.381-.63-.953-.63-2.035 0-.393.011-1.571.963-2.404zM7.163.036v2.487H6.021V1.154H4.403V7.39H5.45v1.047H1.737V7.39h1.047V1.154H1.13v1.369H0V.036h7.163zM43.334 16.528v1.673h2.003c1.176 0 1.375-.26 1.375-.842 0-.586-.191-.831-1.375-.831h-2.004zm-2.427-2.142h4.875c2.275 0 3.38.964 3.38 2.947 0 1.335-.598 2.281-1.646 2.659l2.28 3.822h-2.76l-1.95-3.482h-1.752v3.482h-2.427v-9.428zm15.584 0v5.623c0 1.489-.4 1.943-1.708 1.943-1.318 0-1.72-.453-1.72-1.943v-5.624h-2.414v5.728c0 1.131.098 2.002.573 2.564.76.901 1.892 1.321 3.561 1.321 1.661 0 2.789-.42 3.549-1.322.415-.493.584-1.236.584-2.563v-5.728H56.49zm7.742 2.823l-.895 2.35h1.823l-.928-2.35zm1.057-2.824h.185l4.019 9.428H66.8s-.7-1.81-.815-2.111h-3.465l-.79 2.111h-2.595l3.991-9.428h2.163zm8.536-.025h4.294v2.092h-4.294c-.944 0-1.819.327-1.819 2.696 0 2.053.727 2.473 1.82 2.473h1.818v-1.526l2.475-2.13v5.822h-4.294c-1.104 0-2.026-.062-2.99-.84-.972-.774-1.465-2.024-1.465-3.714 0-3.28 1.457-4.874 4.455-4.874" fill="#fff"/></symbol><symbol id="search" viewBox="0 0 13 14"><path d="M6 11A5 5 0 1 0 6 1a5 5 0 0 0 0 10zM12 13l-3-3" stroke="#fff" stroke-linecap="round" stroke-linejoin="round"/></symbol><symbol id="youtube-white" viewBox="0 0 24 18"><path d="M9.522 12.107l6.482-3.348L9.522 5.37v6.736zM12 .563c1.5 0 2.95.022 4.353.066 1.401.045 2.424.085 3.067.121l.977.054.228.026.308.04.321.054c.152.027.277.063.375.107l.375.174c.152.072.29.161.416.268.125.107.254.223.388.348l.214.255c.09.116.219.375.389.777.17.401.285.852.348 1.352.071.572.13 1.183.174 1.835.045.652.067 1.156.067 1.514V9.91a28.349 28.349 0 0 1-.241 3.884 5.449 5.449 0 0 1-.335 1.339c-.16.402-.303.674-.428.817l-.188.228a3.67 3.67 0 0 1-.388.361 1.859 1.859 0 0 1-.416.255c-.143.062-.268.116-.375.16a1.88 1.88 0 0 1-.375.108c-.143.026-.25.049-.321.067a1.867 1.867 0 0 1-.308.04c-.134.009-.21.013-.228.013-2.24.17-5.04.255-8.397.255-1.848-.018-3.451-.045-4.808-.08-1.357-.037-2.255-.072-2.692-.108l-.656-.054-.482-.053a6.005 6.005 0 0 1-.724-.134 4.453 4.453 0 0 1-.683-.281 2.65 2.65 0 0 1-.763-.55l-.201-.24c-.08-.108-.21-.371-.388-.79-.179-.42-.3-.871-.362-1.353a26.61 26.61 0 0 1-.16-1.822C.044 11.33.017 10.821 0 10.446V8.09C-.01 6.795.07 5.5.24 4.205c.063-.49.174-.933.335-1.326.16-.392.303-.67.428-.83l.188-.228c.125-.133.254-.25.388-.348.134-.098.273-.187.415-.268.143-.08.268-.138.375-.174.108-.035.237-.071.389-.107a1.67 1.67 0 0 1 .308-.053c.053 0 .156-.014.308-.04.152-.027.228-.036.228-.027C5.843.643 8.643.562 12 .562z" fill="#fff"/></symbol></svg>